<svg width="561" height="321" viewBox="0 0 561 321" fill="none" xmlns="http://www.w3.org/2000/svg">
<path d="M449.568 230.969C449.668 231.77 453.247 230.969 453.857 230.969C455.068 230.969 456.552 230.745 457.701 231.128C459.286 231.657 460.743 232.425 462.371 232.907C465.071 233.707 468.132 232.399 470.822 232.399C472.158 232.399 474.53 232.637 475.301 233.988C476.187 235.538 476.419 234.426 477.446 233.4C477.844 233.001 478.732 232.585 478.732 231.97C478.732 231.553 478.931 231.104 479.304 230.906C479.727 230.682 480.346 230.505 480.829 230.525C481.423 230.548 481.814 229.669 482.148 228.809C483.122 226.292 483.892 225.385 486.865 226.045C489.007 226.521 490.872 223.278 492.107 222.042C492.611 221.539 492.836 220.852 493.171 220.247C493.557 219.554 495.009 219.14 495.745 218.977C497.134 218.668 496.46 215.795 496.46 214.449C496.46 213.118 496.314 212.198 497.047 211.098C497.588 210.286 498.021 208.899 497.826 207.873C497.555 206.451 497.601 205.349 499.335 204.807C500.728 204.372 501.825 204.491 501.892 202.599C501.912 202.033 501.574 200.173 502.035 199.804C502.709 199.264 503.825 198.746 504.688 198.438C505.908 198.002 505.762 196.735 506.118 195.578C506.778 193.432 509.099 193.441 510.12 191.512C510.888 190.061 510.192 187.957 511.217 186.476C512.085 185.222 513.316 183.507 513.599 181.949C513.897 180.31 513.943 178.642 514.123 176.961C514.637 172.172 514.772 168.363 514.123 163.5C513.977 162.402 512.508 163.675 512.424 162.166C512.379 161.357 514.123 160.516 514.123 159.5" stroke="#009CFF" stroke-width="2" stroke-linecap="round"/>
<path d="M513.772 158.621C513.772 157.753 514.057 156.201 513.407 155.479C512.908 154.924 512.546 154.181 512.873 153.473C513.057 153.075 513.433 153.08 513.433 152.625C513.433 152.272 512.89 151.856 512.64 151.606C512.114 151.08 512.856 150.268 513.15 149.74C513.537 149.043 512.737 148.321 512.307 147.892C512.239 147.823 511.952 147.719 511.98 147.59C512.039 147.329 512.929 147.297 513.125 147.244C514.057 146.994 513.885 146.482 513.885 145.622C513.885 144.379 513.554 144.26 512.747 143.454C512.322 143.028 512.188 142.888 512.188 142.278C512.188 141.197 512.948 140.502 513.181 139.525C513.493 138.222 513.659 136.787 513.659 135.452C513.659 135.082 513.339 134.772 513.231 134.408C513.058 133.824 512.594 133.333 512.257 132.837C511.452 131.651 511.868 130.656 512.276 129.342C512.363 129.061 512.482 128.84 512.301 128.563C511.905 127.957 511.631 127.112 511.522 126.4C511.378 125.468 511.944 125.039 512.452 124.338C512.886 123.74 513.113 123.089 513.043 122.358C512.954 121.436 513.915 120.62 514.275 119.787C514.748 118.692 515.646 117.65 516.324 116.67C516.495 116.422 516.641 116.141 516.827 115.909C517.36 115.243 518.758 116.298 519.316 115.739" stroke="#009CFF" stroke-width="2" stroke-linecap="round"/>
<path d="M518.977 115.06C518.977 114.282 518.75 113.569 518.75 112.803C518.75 112.336 517.887 111.56 518.31 111.138C518.595 110.853 519.107 110.416 519.498 110.295C519.954 110.155 520.3 109.983 520.391 109.51C520.586 108.496 519.868 107.191 519.417 106.348C519.142 105.835 518.677 105.709 518.298 105.329C517.884 104.916 517.64 104.364 517.235 103.921C516.479 103.093 515.805 102.17 515.079 101.313C514.697 100.86 514.836 99.8131 514.954 99.3076C515.044 98.9202 515.296 98.5123 514.966 98.2013C514.208 97.4854 513.128 97.2326 512.238 96.7241C511.73 96.4339 511.634 96.3703 511.509 95.7372C511.393 95.1473 511.74 94.7838 511.848 94.2412" stroke="#009CFF" stroke-width="2" stroke-linecap="round"/>
<path d="M511.622 93.6756C511.322 93.0748 510.92 92.5366 510.579 91.9595C510.242 91.3905 510.113 90.7055 509.912 90.0801C509.665 89.3059 509.937 88.8072 510.321 88.1252C510.956 86.9957 511.256 86.3114 510.34 85.1771C510.06 84.8308 509.741 84.5055 509.384 84.2217C508.807 83.7626 508.715 83.7468 509.076 83.0965C509.37 82.5677 508.815 81.6335 508.517 81.2359C508.074 80.6449 507.574 80.134 506.983 79.6707C506.495 79.2879 506.146 79.0883 505.94 78.489C505.747 77.9289 505.696 77.2747 505.406 76.7666C505.17 76.3547 504.651 76.0662 504.494 75.6352C504.409 75.4021 504.087 75.0891 503.878 74.9312C503.286 74.4824 502.581 74.2557 501.942 73.8752C501.324 73.5075 500.712 73.1043 500.031 72.8568C499.755 72.7564 499.536 72.478 499.233 72.4105C498.405 72.2266 497.31 72.4043 496.461 72.4043" stroke="#009CFF" stroke-width="2" stroke-linecap="round"/>
<path d="M496.348 71.4987C496.348 71.1129 496.29 70.6567 496.486 70.3044C496.646 70.0155 496.828 69.933 496.8 69.5501C496.723 68.4746 494.784 68.1656 493.997 67.9032C493.4 67.7042 492.767 67.8814 492.186 67.6518C491.851 67.5191 491.276 67.2677 491.055 66.9729C490.724 66.5321 489.392 66.6172 488.905 66.6335C488.222 66.6562 487.714 67.3123 486.994 67.3123C485.754 67.3123 484.378 67.3316 483.16 67.0609C482.193 66.8461 481.563 66.2085 480.558 66.0929C480.042 66.0336 479.648 66.085 479.401 65.6151C479.174 65.1846 478.552 64.784 478.106 64.622C477.594 64.4357 476.305 64.403 475.981 63.918" stroke="#009CFF" stroke-width="2" stroke-linecap="round"/>
<path d="M475.642 63.4656C475.568 62.8041 474.237 62.3322 473.832 61.825C473.595 61.5292 473.251 61.3546 472.927 61.1461C472.424 60.8233 472.027 60.3474 471.632 59.9141C471.297 59.5471 471.144 58.8028 470.758 58.5375C469.86 57.92 468.955 57.3443 468.174 56.5637C467.454 55.8429 467.319 54.8741 466.716 54.1122C466.572 53.9297 466.208 53.7176 466.257 53.4459C466.333 53.029 467.039 52.6666 467.357 52.415C468.007 51.902 468.776 51.4841 469.256 50.787C469.677 50.1744 469.97 49.4797 470.255 48.7818C470.377 48.4847 470.137 48.2226 470.104 47.9144C470.065 47.547 470.062 47.1384 469.928 46.7892C469.712 46.2265 469.257 46.0426 468.74 45.7269C468.483 45.5695 468.277 45.2393 468.049 45.0355C467.654 44.6835 467.125 44.3541 466.817 43.9166C466.598 43.6061 466.53 43.2786 466.264 42.9737C465.643 42.2634 464.942 41.7061 464.265 41.0628C463.773 40.5958 463.95 40.4971 464.554 40.4971" stroke="#009CFF" stroke-width="2" stroke-linecap="round"/>
<path d="M465.003 40.8654C465.003 40.1945 466.587 39.9244 465.754 39.0909C465.529 38.8664 465.022 38.5268 464.73 38.3961C464.272 38.1904 464.097 37.9294 463.585 37.9032C462.931 37.8696 461.845 37.5661 461.28 37.9548C460.739 38.3264 460.661 38.6521 459.942 38.3961C459.008 38.0634 458.665 37.9965 458.665 37.0628C458.665 36.8337 458.966 36.7863 459.069 36.5558C459.239 36.1738 458.95 35.6074 458.759 35.3071C458.441 34.8077 457.99 34.4266 457.501 34.1053C457.088 33.8345 456.616 33.4533 456.182 33.2603C455.989 33.1745 455.914 32.4779 455.872 32.2886C455.819 32.0486 455.349 31.824 455.135 31.7581C454.081 31.434 452.828 31.7262 451.736 31.5703" stroke="#009CFF" stroke-width="2" stroke-linecap="round"/>
<path d="M451.483 31.4008C451.391 30.4868 450.058 29.3943 450.975 28.5277C451.82 27.73 450.741 26.9487 450.14 26.3401C449.79 25.9855 449.77 25.9116 449.276 25.8237C448.471 25.6806 448.545 25.8056 447.887 26.2087C446.651 26.9645 445.324 26.3901 444.107 25.8284C443.687 25.6345 443.381 25.1301 442.943 24.8942C442.169 24.4773 441.369 24.1448 440.629 23.6736C440.167 23.3798 439.816 22.9298 439.343 22.6456C438.698 22.259 437.901 21.9593 437.371 21.4297" stroke="#009CFF" stroke-width="2" stroke-linecap="round"/>
<path d="M437.033 20.7543C436.953 20.4613 436.518 20.1997 436.319 19.975C435.962 19.5712 435.62 19.1928 435.315 18.7451C435.056 18.3653 434.788 18.035 434.479 17.6935C434.101 17.2752 433.747 16.7508 433.442 16.2758C432.876 15.3959 432.147 14.6181 431.583 13.7407C431.161 13.0844 430.443 12.5578 429.925 11.9756C429.679 11.6989 429.345 11.2536 429.005 11.0837C428.767 10.9647 428.42 11.047 428.165 11.032C427.878 11.0152 427.604 10.9522 427.315 10.9522C426.47 10.9522 425.625 10.9522 424.78 10.9522C424.213 10.9522 423.878 11.081 423.381 10.8208C422.686 10.4565 422.208 10.2002 421.4 10.511C420.705 10.7785 419.966 10.9522 419.222 10.9522C418.368 10.9522 417.513 10.9522 416.659 10.9522C416.211 10.9522 416.019 10.9357 415.65 10.6893C415.101 10.3237 414.688 10.0354 414.64 9.3655C414.617 9.04637 414.276 8.88263 414.133 8.63316C414.079 8.53747 413.602 8.55272 413.514 8.53927C412.845 8.43746 412.171 8.45315 411.504 8.35149C410.751 8.23657 409.687 8.20901 409.063 7.74121" stroke="#009CFF" stroke-width="2" stroke-linecap="round"/>
<path d="M409.148 7.23384C409.1 6.8484 408.236 5.99384 407.965 5.72222C407.502 5.25986 406.928 4.99412 406.279 4.87252C405.528 4.73158 404.755 4.78333 403.993 4.78333C403.122 4.78333 402.698 4.59003 401.914 4.27632C401.146 3.96935 400.663 3.79303 400.078 3.23415C399.82 2.98825 399.501 2.6743 399.177 2.52059C398.815 2.34922 397.99 2.50289 397.656 2.50181C395.475 2.49476 392.985 2.11792 390.811 2.52059C390.198 2.6341 389.738 3.00512 389.121 3.09332C388.367 3.20107 387.623 3.12294 386.868 2.95718C385.787 2.7199 384.405 2.75498 383.417 2.20606C382.302 1.58657 380.728 1.68854 379.511 1.6615C379.009 1.65033 378.571 1.70695 378.103 1.91031C377.523 2.16245 377.019 2.50181 376.361 2.50181C375.38 2.50181 374.543 2.09555 373.611 1.8352C372.676 1.57451 371.765 1.48781 370.803 1.48781C370.282 1.48781 369.705 1.56191 369.198 1.42208C369.031 1.37616 368.776 1.37605 368.616 1.44086C368.108 1.64602 367.514 1.91031 366.982 1.91031" stroke="#009CFF" stroke-width="2" stroke-linecap="round"/>
<path d="M366.221 2.16404C365.634 2.16404 364.873 2.06196 364.353 2.37999C363.729 2.76159 363.032 2.92455 362.297 2.92455C361.519 2.92455 360.702 3.11159 359.921 3.17805C359.142 3.24439 358.377 3.37225 357.602 3.46911C357.043 3.53904 356.44 3.59611 355.912 3.8118C355.074 4.15488 354.064 4.10756 353.18 4.10756C351.747 4.10756 350.315 4.19206 348.88 4.19206C347.54 4.19206 346.181 4.13323 344.843 4.21083C344.236 4.24602 343.493 4.15829 342.899 4.29533C342.44 4.40141 341.994 4.56478 341.519 4.59578C340.026 4.69317 338.474 4.69906 336.984 4.69906" stroke="#009CFF" stroke-width="2" stroke-linecap="round"/>
<path d="M336.731 4.95215C336.304 4.97156 334.923 5.36662 334.637 5.88165C334.245 6.58644 333.461 6.90592 332.717 6.56235C332.333 6.38533 331.605 6.27794 331.201 6.39335C331.107 6.41998 331.091 6.64938 331.05 6.72666C330.878 7.05785 330.596 7.36047 330.29 7.57167C329.368 8.20758 327.937 7.60744 326.896 8.03172C326.363 8.24895 326.179 8.72943 326.037 9.25698C325.948 9.58773 325.636 9.76679 325.398 9.98463C324.53 10.7807 323.689 11.7802 322.45 11.9469C322.053 12.0004 321.38 11.8325 321.164 11.562C321.1 11.4825 320.773 11.1219 320.676 11.3413C320.346 12.0838 319.974 12.8656 319.239 13.2332" stroke="#009CFF" stroke-width="2" stroke-linecap="round"/>
<path d="M318.901 13.487C318.882 13.6365 318.506 13.5934 318.404 13.609C317.443 13.7562 316.503 13.8323 315.531 13.7405C315.087 13.6986 315.014 13.7046 315.014 13.318C315.014 12.5459 314.584 12.3744 313.812 12.4072C312.701 12.4545 311.624 12.493 310.62 12.98C310.305 13.1329 309.964 13.2062 309.615 13.2523C308.99 13.335 308.337 13.2375 307.728 13.4025C306.933 13.6182 306.036 13.7065 305.217 13.7358C303.617 13.7929 302.028 13.825 300.424 13.825C299.508 13.825 298.612 13.994 297.701 13.994C297.356 13.994 296.862 14.0952 296.546 13.9517C296.317 13.8475 296.154 13.8121 295.959 13.656C295.894 13.6037 295.881 13.5119 295.828 13.4494C295.716 13.3189 295.25 13.2729 295.1 13.2335C294.626 13.1082 293.562 12.8424 293.086 13.1067C292.907 13.2061 292.758 13.3378 292.537 13.2335C292.08 13.0175 291.729 12.6259 291.269 12.4072C291.172 12.3606 291.004 12.3885 290.903 12.3885C290.302 12.3885 289.702 12.3885 289.101 12.3885C288.556 12.3885 287.925 12.2329 287.467 12.5762C287.289 12.7096 286.399 13.406 286.199 13.1959C286.005 12.9913 285.917 12.7341 285.692 12.5387C285.454 12.3313 285.215 12.139 284.951 11.966C284.599 11.7356 284.055 12.1814 283.777 12.3791C283.306 12.714 282.403 13.1533 282.078 13.656C281.975 13.814 281.752 13.9681 281.575 14.0409C280.508 14.4806 279.422 13.3898 278.557 12.8955C277.695 12.4028 276.528 11.2297 275.51 11.8862C274.993 12.2195 274.777 12.6534 274.538 13.1912C274.414 13.4703 274.025 13.4025 273.783 13.4025C272.606 13.4025 271.517 12.811 270.313 12.811" stroke="#009CFF" stroke-width="2" stroke-linecap="round"/>
<path d="M270.06 13.1494C269.146 13.1494 268.232 13.1494 267.318 13.1494C266.743 13.1494 266.132 13.0786 265.572 13.2386C264.493 13.5469 263.289 13.4029 262.173 13.4029C261.29 13.4029 260.413 13.4874 259.53 13.4874C259.178 13.4874 258.894 13.5475 258.568 13.6564" stroke="#009CFF" stroke-width="2" stroke-linecap="round"/>
<path d="M257.884 13.9293C257.208 13.2532 256.422 13.2806 255.523 13.3256C254.91 13.3562 254.122 13.5155 253.497 13.6207C252.493 13.7895 251.477 14.0052 250.498 14.2849C250.094 14.4002 249.836 14.1004 249.425 14.0031C248.685 13.8278 247.346 13.6916 246.708 14.2446C246.02 14.8406 245.717 15.0865 244.776 15.1435C243.978 15.1919 243.2 15.3407 242.401 15.385C241.438 15.4385 240.179 15.572 239.262 15.8881C238.938 15.9998 238.562 16.2576 238.336 16.512C238.189 16.6778 237.916 16.6059 237.746 16.7334C237.459 16.9486 236.856 16.8273 236.498 16.8273C235.621 16.8273 234.388 16.7386 233.734 17.431C233.429 17.7537 233.362 18.3925 232.829 18.5111C231.819 18.7355 231.165 19.5569 230.018 19.2423C228.721 18.8867 227.701 18.5178 226.308 18.5178C225.912 18.5178 226.008 18.8476 225.865 19.0611C225.661 19.3675 224.717 19.4272 224.369 19.4905C223.832 19.5882 223.033 20.0083 222.565 20.2686C222.085 20.5354 221.394 20.4854 220.962 20.8388C220.537 21.1864 220.264 21.5806 219.727 21.8451C219.094 22.1573 218.414 22.1807 217.795 22.4086C217.267 22.6031 216.334 22.3648 215.743 22.3817C215.1 22.4001 214.498 22.7452 213.878 22.858C212.616 23.0875 212.056 24.8146 211.335 25.6956C210.889 26.2416 210.527 27.1983 209.893 27.5471C208.445 28.3437 206.919 28.3409 205.311 28.6003C204.033 28.8064 202.967 28.2018 202.098 27.3325" stroke="#009CFF" stroke-width="2" stroke-linecap="round"/>
<path d="M201.132 27.3323C201.132 26.7802 200.381 26.4542 199.924 26.581C199.068 26.8188 198.331 27.5513 198.019 28.3922C197.698 29.2598 197.199 29.3227 196.208 29.5058C195.648 29.6093 195.44 29.5489 195.336 30.1229C195.217 30.7756 195.127 31.4216 194.974 32.0683C194.807 32.7686 194.631 33.3919 194.276 33.9735C193.942 34.5207 193.525 34.9616 193.525 35.664C193.525 36.4565 193.26 36.9195 192.465 37.2337C191.539 37.5997 191.35 36.5692 190.566 36.3952C190.113 36.2944 188.227 35.6436 187.97 36.0933C187.718 36.5352 187.14 36.7744 186.83 37.1733C186.386 37.7436 186.09 38.2879 185.435 38.6156C184.895 38.8855 183.512 38.7927 182.899 38.6223C181.918 38.35 181.764 38.8546 181.322 39.6487C180.648 40.8625 179.51 42.3496 178.069 42.6071C177.388 42.7287 174.567 43.0716 174.567 41.8222" stroke="#009CFF" stroke-width="2" stroke-linecap="round"/>
<path d="M224.642 19.7539C224.998 20.1545 225.432 20.4513 225.709 20.922C226.323 21.9644 228.146 20.4449 228.146 22.1333C228.146 22.3805 228.033 22.8522 228.363 22.5227C228.781 22.1046 229.031 21.4411 229.675 21.4411C230.134 21.4411 230.593 21.4411 231.052 21.4411C231.587 21.4411 231.693 22.3218 231.975 22.6669C232.438 23.2325 232.896 23.5464 233.605 23.1211C234.716 22.4545 234.954 22.0737 236.063 22.8976C236.651 23.3341 236.819 24.0714 237.556 24.2315C238.689 24.4777 239.878 24.2584 240.966 23.9359C241.785 23.6934 241.955 24.1756 242.553 24.5271C243.27 24.949 243.74 25.3347 244.636 25.3347C245.581 25.3347 245.586 26.1515 245.956 26.8921C246.304 27.5893 247.125 27.5633 247.744 27.8727C248.645 28.3232 248.782 29.4986 248.782 30.3963C248.782 31.1878 249.133 31.9153 249.691 32.4729C250.489 33.2712 251.063 32.3516 251.84 32.0186C252.429 31.7661 253.644 31.6304 254.233 31.9249C254.707 32.1616 255.017 32.665 255.524 32.855C256.109 33.0743 256.757 33.2884 257.377 33.3526C257.919 33.4086 259.395 33.6858 259.879 33.3093C260.445 32.8694 261.316 32.992 261.999 32.992C263.04 32.992 264.289 34.3182 264.804 35.1263C265.303 35.9103 266.684 36.0269 267.515 36.3593C268.024 36.5631 268.29 37.1409 268.64 37.5345C268.981 37.9186 269.087 38.6541 269.346 39.0992C269.657 39.6316 269.744 40.2212 270.197 40.6494C270.62 41.0489 270.928 41.5349 271.365 41.9472C271.733 42.2947 272.151 42.6616 272.266 43.1802C272.546 44.4374 274.006 45.2041 274.675 46.2446C275.33 47.2638 275.398 49.3303 276.816 49.7055C278.463 50.1414 278.503 51.3609 278.503 52.8492" stroke="#009CFF" stroke-width="2" stroke-linecap="round"/>
<path d="M278.244 52.7197C278.244 53.1277 278.135 53.5036 278.114 53.8878C278.073 54.6199 279.228 54.8262 279.722 54.991C280.124 55.1251 282.116 55.5468 282.137 56.123C282.153 56.5504 282.039 57.0454 282.267 57.4209C282.452 57.7258 282.543 58.1537 282.815 58.4015C282.901 58.4796 283.235 58.4303 283.305 58.4303C284.073 58.4303 284.845 58.4538 285.613 58.4231C286.727 58.3785 286.825 57.3673 287.401 58.7908C287.573 59.2162 287.468 59.8672 287.783 60.1824C288.225 60.6245 288.269 60.8026 288.864 60.9755C290.277 61.3856 291.652 61.9024 293.01 62.4248C293.94 62.7825 293.645 64.283 294.416 64.797C295.008 65.1915 295.67 65.2764 296.349 65.1719C296.775 65.1063 297.222 64.8102 297.611 65.0494C298.121 65.3634 298.274 65.5686 298.57 66.0949C298.799 66.5034 299.054 67.0074 299.529 67.1259" stroke="#009CFF" stroke-width="2" stroke-linecap="round"/>
<path d="M299.529 67.2559C300.22 67.8707 301.198 68.8133 302.189 68.8133C302.988 68.8133 303.873 69.1565 304.691 68.9142C305.49 68.6774 305.945 68.8001 306.479 69.3973C306.931 69.9021 307.284 70.479 307.705 71.0196C308.199 71.6546 308.675 71.7217 309.392 72.0291C310.412 72.4662 311.981 72.1877 313.084 72.1877C313.648 72.1877 314.175 72.5759 314.656 72.8366C315.397 73.239 316.09 74.2397 316.559 74.8844C316.804 75.2206 316.954 75.7487 317.042 76.1462C317.235 77.0125 318.941 77.5287 319.689 77.8694C320.553 78.2636 321.411 78.7375 322.313 79.124C323.567 79.6616 324.86 79.9741 326.135 80.4291C326.808 80.6695 327.403 81.0953 327.822 81.6909C328.015 81.9659 328.222 82.5608 328.536 82.7003C328.796 82.8162 329.674 83.4202 329.769 83.6088" stroke="#009CFF" stroke-width="2" stroke-linecap="round"/>
<path d="M330.028 83.3486C330.028 84.56 330.028 85.7713 330.028 86.9826C330.028 88.2036 330.028 89.4245 330.028 90.6455C330.028 91.0256 330.07 92.2653 329.639 92.5346C328.7 93.1213 328.308 94.0523 327.533 94.7986C326.365 95.9234 326.005 97.2525 326.005 98.9229C326.005 99.9405 326.806 101.009 325.529 101.576C324.344 102.103 323.305 102.845 322.659 103.956C322.319 104.541 322.477 105.486 322.501 106.162C322.521 106.758 322.816 107.147 322.371 107.619C322.232 107.766 322.133 107.872 321.981 108.008C321.646 108.308 321.599 108.659 321.332 108.989C320.981 109.423 320.787 109.975 320.525 110.474C320.205 111.083 319.461 111.547 319.256 112.161" stroke="#009CFF" stroke-width="2" stroke-linecap="round"/>
<path d="M318.477 112.551C317.552 113.618 317.05 114.743 317.05 116.12C317.05 116.979 317.601 117.688 317.706 118.528C317.986 120.773 317.469 123.241 316.011 125.053C314.86 126.485 313.229 127.533 311.937 128.824C311.478 129.283 311.157 129.508 310.885 130.144C310.612 130.779 310.208 131.321 310.171 132.019C310.126 132.869 308.73 133.518 308.123 133.908C307.454 134.338 308.043 135.121 308.419 135.581C309.083 136.393 309.245 136.964 309.529 137.996C309.762 138.839 310.171 139.707 310.171 140.584C310.171 141.828 309.916 142.37 309.061 143.18C308.629 143.589 308.054 144.074 307.972 144.73C307.863 145.6 308.219 146.452 308.022 147.463C307.846 148.368 307.654 148.807 307.085 149.439C306.668 149.902 305.758 150.703 305.758 151.357" stroke="#009CFF" stroke-width="2" stroke-linecap="round"/>
<path d="M305.888 150.708C305.888 151.529 305.245 152.254 305.398 153.102C305.532 153.848 306.021 154.684 306.306 155.38C306.927 156.897 305.758 158.563 305.758 160.053C305.758 161.015 305.532 161.49 304.893 162.245C304.37 162.863 303.927 163.515 303.35 164.076C303.033 164.385 302.572 164.609 302.355 164.984C302.006 165.587 301.152 166.151 300.596 166.542C299.957 166.991 299.548 167.921 299.269 168.618" stroke="#009CFF" stroke-width="2" stroke-linecap="round"/>
<path d="M298.75 168.878C297.882 171.048 295.743 172.193 293.76 173.154C292.373 173.826 290.812 174.847 289.852 176.081C289.402 176.66 289.405 177.446 289.405 178.15C289.405 178.96 289.177 179.637 288.944 180.414C288.579 181.63 287.909 182.185 287.069 183.025" stroke="#009CFF" stroke-width="2" stroke-linecap="round"/>
<path d="M287.329 182.505C286.773 183.415 285.461 184.159 284.56 184.682C284.392 184.78 284.219 184.866 284.055 184.971C283.799 185.135 283.588 185.477 283.363 185.605C283.066 185.775 282.458 185.771 282.123 185.879C281.571 186.058 281.069 186.176 280.508 186.283C278.894 186.59 278.063 188.172 277.234 189.384C276.922 189.839 276.031 190.323 275.576 190.616C274.733 191.16 273.78 191.56 272.858 191.914C270.816 192.699 269.152 192.124 267.089 191.669C265.815 191.388 264.552 191.105 263.318 190.681C262.373 190.357 261.498 189.902 260.521 189.672C260.122 189.578 259.644 189.643 259.237 189.643C258.972 189.643 258.751 189.767 258.487 189.773C257.805 189.789 257.241 189.408 256.634 189.124C255.395 188.542 254.147 187.606 252.791 187.307C251.264 186.97 249.643 187.029 248.09 187.047C247.279 187.057 246.591 187.567 245.797 187.567C245.033 187.567 244.294 187.437 243.533 187.437C240.938 187.437 238.53 188.54 236.02 189.182C235.373 189.347 234.715 189.55 234.059 189.672C233.163 189.838 232.298 190.098 231.391 190.22C230.671 190.317 229.912 190.316 229.214 190.523C228.825 190.638 228.545 190.495 228.262 190.883C227.846 191.455 226.895 191.775 226.344 192.224C225.469 192.938 224.65 193.654 223.683 194.243C222.337 195.064 221.205 196.116 221.015 197.82C220.856 199.251 220.673 200.636 220.33 202.045C219.876 203.912 219.71 205.771 219.71 207.683" stroke="#009CFF" stroke-width="2" stroke-linecap="round"/>
<path d="M256.951 14.2792C257 13.9377 258.099 15.4979 258.225 15.6456C258.58 16.059 259.052 15.9195 259.429 16.3797C260.002 17.0808 260.318 17.8279 261.356 17.95C262.543 18.0897 263.468 19.0319 263.925 20.0607C264.3 20.9038 266.206 21.8553 267.045 21.9879C267.582 22.0726 268.495 23.0032 268.973 23.3746C269.304 23.632 270 24.1128 270.166 24.4861C270.625 25.5201 271.144 25.967 271.818 26.7599C272.852 27.977 271.878 29.4364 272.46 30.7163C272.901 31.6874 273.228 32.7974 273.928 33.6529C274.879 34.8153 276.257 35.7185 277.14 36.8955C277.671 37.6038 278.4 38.2268 278.965 38.945C279.521 39.6506 280.083 40.1611 280.903 40.5255C281.905 40.9711 283.67 42.1241 284.156 43.095C284.851 44.4868 285.658 45.1943 287.235 45.4811C288.328 45.6799 289.413 45.6844 290.518 45.8482C291.47 45.9892 291.863 46.4813 292.741 46.7251C293.93 47.0554 294.941 47.1617 295.953 47.9487C296.511 48.3825 297.65 49.0474 297.697 49.886C297.758 50.9942 297.55 51.9788 298.064 53.0062" stroke="#009CFF" stroke-width="2" stroke-linecap="round"/>
<path d="M297.88 53.7402C298.411 53.7992 299.462 55.0749 299.756 55.5756C300.535 56.8986 300.853 58.2398 301.918 59.43C302.436 60.0093 303.021 59.9991 303.611 60.4904C303.923 60.7502 304.914 61.0555 304.029 61.4489C303.556 61.659 303.386 62.0253 303.386 62.5094C303.386 63.1628 304.119 63.8408 304.753 63.9777C305.646 64.1709 307.363 64.2602 308.23 63.9267C309.256 63.532 310.04 62.2318 311.136 62.1831C312.501 62.1224 312.639 62.8078 313.522 63.6106C314.366 64.3778 315.434 65.1017 316.499 65.5582C317.66 66.0554 318.955 66.3293 320.17 66.6696C320.511 66.7651 322.398 66.2742 322.464 66.5065C322.54 66.7706 322.648 67.2827 322.658 67.5466C322.69 68.3734 322.563 68.4235 323.545 68.4235C324.781 68.4235 327.546 68.8714 328.491 67.8321C328.737 67.5608 328.862 67.1549 329.164 66.8532C329.501 66.5161 329.017 66.145 329.674 66.3637C330.143 66.5204 330.735 66.6878 331.213 66.7614C332.139 66.9038 333.021 67.1705 333.946 67.414C335.173 67.7369 335.506 67.8786 335.506 69.2392C335.506 69.7118 335.866 70.4424 336.424 70.4424" stroke="#009CFF" stroke-width="2" stroke-linecap="round"/>
<path d="M336.424 70.9932C337.426 70.9932 338.271 71.8199 339.187 72.176C340.39 72.6438 340.903 72.7883 342.001 72.2066C342.632 71.873 343.688 72.0944 344.408 72.0944C344.956 72.0944 345.057 72.5508 345.519 72.6348C346.604 72.8321 347.557 72.1683 348.629 72.645C349.578 73.0666 350.09 73.9387 351.209 74.2051C352.93 74.6148 353.83 75.2023 355.42 73.9298C356.261 73.2568 357.13 74.2236 357.806 74.6742C358.532 75.1577 358.581 76.0045 359.468 76.4076C359.837 76.5752 360.437 76.2684 360.743 76.0303C361.126 75.7325 361.4 75.7652 361.875 75.7652C362.591 75.7652 364.004 76.238 364.281 77.0092C364.54 77.728 364.888 77.9399 365.749 77.9677C366.165 77.9811 367.452 77.7209 367.768 78.0085C368.127 78.3348 369.037 79.1112 369.094 79.6196C369.134 79.9771 369.452 80.4202 369.685 80.68C369.922 80.9425 370.235 81.2764 370.562 81.4142C370.799 81.5137 371.506 80.6821 371.806 80.5781C372.543 80.3232 373.903 82.3921 374.376 82.8825C375.371 83.9149 376.042 84.8691 377.496 85.1666C377.934 85.2561 378.995 85.2278 379.331 85.5336C379.789 85.9493 380.136 86.5877 380.473 87.1039C380.865 87.702 381.08 88.5414 381.391 89.1637" stroke="#009CFF" stroke-width="2" stroke-linecap="round"/>
<path d="M381.391 88.4297C381.072 90.1072 381.356 91.8178 380.8 93.4261C380.449 94.4388 380.384 95.3665 380.484 96.4647C380.563 97.3392 381.208 97.7931 381.208 98.7283C381.208 99.5218 380.841 100.155 380.841 100.91C380.841 101.65 381.021 102.046 381.197 102.664C381.392 103.344 381.538 104.431 381.575 105.132C381.628 106.142 381.208 107.084 381.208 108.069" stroke="#009CFF" stroke-width="2" stroke-linecap="round"/>
<path d="M381.208 107.885C381.208 109.2 381.129 110.27 380.698 111.515C380.371 112.459 380.528 113.363 380.463 114.37C380.386 115.572 379.205 115.21 378.546 115.869C377.716 116.699 376.897 117.518 376.068 118.347C375.29 119.125 374.504 120.061 374.417 121.242C374.393 121.559 374.032 121.979 374.335 122.282C374.992 122.939 376.172 123.247 376.996 123.588C377.622 123.846 382.839 126.292 381.299 127.524C380.331 128.298 381.683 129.678 382.125 130.317C382.815 131.314 384.168 131.396 385.246 131.704C386.231 131.986 387.658 132.693 388.457 133.315C390.651 135.022 392.775 136.815 394.749 138.862C395.441 139.58 396.458 140.532 397.4 140.881C398.547 141.306 399.496 141.989 400.581 142.482C401.483 142.892 402.796 143.592 403.039 144.685C403.215 145.479 403.445 146.316 404.334 146.612" stroke="#009CFF" stroke-width="2" stroke-linecap="round"/>
<path d="M404.517 146.795C405.57 147.848 406.764 148.719 407.546 149.936C408.055 150.728 408.732 151.734 409.106 152.576C409.709 153.933 410.391 155.85 410.391 157.338C410.391 158.79 410.377 160.207 410.217 161.641C410.119 162.529 409.84 163.317 409.84 164.231C409.84 165.236 410.986 166.915 411.859 167.351" stroke="#009CFF" stroke-width="2" stroke-linecap="round"/>
<path d="M412.042 167.902C413.269 169.129 415.025 170.314 415.897 171.838C416.5 172.895 417.412 173.963 418.385 174.704C419.327 175.421 420.367 175.975 421.321 176.671C422.598 177.603 423.673 178.779 424.849 179.832C426.038 180.897 427.223 181.88 428.286 183.055C428.883 183.715 429.661 184.578 430.111 185.349C430.673 186.312 430.995 187.454 431.498 188.459C431.9 189.263 432.399 190.078 432.782 190.845" stroke="#009CFF" stroke-width="2" stroke-linecap="round"/>
<path d="M432.599 190.845C432.803 191.366 433.24 192.637 432.925 193.231C432.751 193.561 432.381 193.656 432.232 194.067C431.858 195.094 432.106 195.496 432.048 196.534C432.022 197.002 431.383 197.254 431.171 197.636C430.92 198.088 430.729 198.579 430.488 199.012C430.28 199.387 430.318 200.055 430.223 200.481C430.105 201.011 429.79 201.231 429.52 201.674C428.976 202.563 427.74 202.924 427.276 203.968C426.648 205.381 427.084 206.434 427.603 207.73C427.701 207.976 427.797 209.331 427.603 209.525C427.286 209.842 425.627 209.566 425.166 209.566C424.415 209.566 423.531 211.79 423.055 212.319C422.423 213.021 421.403 214.379 421.403 215.347C421.403 216.063 422.485 217.266 421.219 217.601C420.569 217.773 419.94 217.808 419.282 217.968C418.266 218.215 417.374 218.912 416.447 219.375C415.182 220.008 412.894 219.981 411.533 220.028C410.24 220.072 409.509 221.496 408.28 221.496C406.64 221.496 404.829 222.408 403.192 221.904C402.66 221.74 402.25 221.417 401.683 221.272C400.955 221.084 400.389 221.312 399.653 221.312C399.133 221.312 398.279 221.48 397.859 221.771C397.687 221.89 397.73 222.149 397.635 222.322C397.406 222.734 397.053 222.804 396.625 222.964" stroke="#009CFF" stroke-width="2" stroke-linecap="round"/>
<path d="M396.258 223.332C395.425 223.381 395.502 224.023 394.902 224.423C394.725 224.541 394.508 224.883 394.423 225.076C394.215 225.543 393.631 225.818 393.23 226.085C392.365 226.662 391.898 227.325 391.211 228.012C390.808 228.414 390.355 229.131 389.824 229.297C389.126 229.515 388.152 229.756 387.448 229.756C387.071 229.756 386.567 229.671 386.204 229.797C385.797 229.938 385.633 230.463 385.246 230.674C384.538 231.058 383.669 231.408 382.859 231.408C382.005 231.408 381.114 231.936 380.29 232.142" stroke="#009CFF" stroke-width="2" stroke-linecap="round"/>
<path d="M147.616 54.0605C147.616 54.6789 147.246 57.0053 147.478 57.3042C148.4 58.4892 149.748 57.7296 150.876 58.5571C152.553 59.7865 153.565 60.3293 154.583 62.0753C155.07 62.9101 156.824 63.7898 157.638 64.2549C158.646 64.8307 159.775 65.0859 160.899 65.5593C162.962 66.4279 165.479 65.1921 167.558 66.1771C170.459 67.5511 173.111 69.2614 175.796 71.0512C177.615 72.2642 179.126 72.8533 180.207 74.7754C181.385 76.8698 183.367 78.292 184.823 80.1643C186.163 81.8871 188.721 86.1883 191.328 86.1883C192.881 86.1883 195.304 86.9495 196.734 87.6642C198.334 88.4642 200.522 88.5137 201.917 89.6551C203.147 90.6614 205.26 90.5132 206.791 90.5132C210.06 90.5132 212.422 90.4286 215.338 91.5086C217.207 92.2009 218.628 92.6756 220.675 92.6756C222.284 92.6756 223.813 92.3667 225.464 92.3667C227.251 92.3667 228.867 92.0578 230.698 92.0578C233.033 92.0578 235.168 92.9864 237.511 93.4308C239.196 93.7502 240.918 94.0038 242.626 94.1516C243.189 94.2004 244.278 94.0082 244.771 94.3918C245.335 94.8302 245.811 95.3636 246.401 95.7648C248.141 96.948 250.236 96.8023 252.34 96.6916C253.749 96.6174 254.982 96.0737 256.424 96.0737C258.124 96.0737 259.672 96.9101 261.298 97.0005C262.498 97.0672 263.622 98.2009 264.988 98.3906C267.4 98.7256 265.615 100.359 265.297 101.789C265.132 102.53 264.289 105.965 263.289 106.251C261.542 106.75 258.817 106.93 257.471 108.276C256.627 109.121 256.513 110.082 255.738 110.902C254.749 111.949 253.939 112.079 252.408 112.138C248.332 112.294 244.244 113.405 240.601 115.227" stroke="#009CFF" stroke-width="2" stroke-linecap="round"/>
<path d="M240.179 115.515C239.46 116.234 238.666 117.147 237.774 117.619C236.687 118.195 236.586 119.327 236.087 120.324C235.934 120.632 235.788 121.224 235.444 121.377C235.236 121.469 234.462 122.089 234.35 122.278C233.743 123.312 232.886 124.265 232.062 125.134C231.487 125.742 231.18 126.526 230.635 127.155C229.869 128.038 229.818 128.778 229.39 129.794C229.216 130.209 229.309 131.01 229.591 131.372C230.271 132.246 230.734 133.314 231.127 134.336C231.549 135.432 231.59 136.692 231.762 137.852C231.877 138.626 232.08 139.507 232.062 140.282C232.032 141.602 230.457 142.726 229.507 143.438C227.926 144.624 226.429 146.133 225.198 147.664C224.316 148.761 223.398 150.419 223.345 151.855C223.323 152.453 222.799 153.195 222.593 153.759C222.329 154.486 222.19 154.23 221.574 154.594C220.625 155.157 219.344 155.26 218.268 155.346C217.813 155.382 217.304 155.683 217.032 156.022C216.712 156.423 215.87 156.248 215.412 156.248C213.231 156.248 210.726 156.365 208.648 157.033C207.992 157.244 207.405 157.744 206.736 157.893C206.143 158.025 205.415 158.234 204.857 158.469C203.82 158.906 202.484 158.727 201.4 159.028C200.491 159.281 199.317 159.705 198.394 159.705" stroke="#009CFF" stroke-width="2" stroke-linecap="round"/>
<path d="M181.71 161.81C183.442 160.994 185.039 159.75 186.703 158.787C187.38 158.395 187.612 158.09 188.357 158.319C189.38 158.634 190.648 158.618 191.713 158.812C192.581 158.97 193.449 159.137 194.327 159.254C194.692 159.303 195.139 159.555 195.463 159.555C196.381 159.555 197.493 159.781 198.394 160.006" stroke="#009CFF" stroke-width="2" stroke-linecap="round"/>
<path d="M94.3167 49.2305C93.5521 49.2893 92.4688 49.6067 91.7934 49.9669C91.3686 50.1935 90.6625 50.0931 90.1877 50.2627C89.543 50.493 89.1554 50.7951 88.9381 51.4037C88.7371 51.9665 88.8781 52.9811 88.9985 53.5225C89.1261 54.0969 89.2097 54.6623 89.2097 55.2671C89.2097 55.997 88.4474 55.9258 87.9058 55.9915C87.1764 56.0799 86.1466 56.4608 85.7568 57.1626C85.5554 57.5251 85.298 57.9712 85.298 58.382C85.298 59.1074 85.8244 59.57 85.1893 60.205C84.7869 60.6075 84.413 60.8849 84.0545 61.346C83.7263 61.7679 84.0648 62.7812 83.7707 63.2958C83.5022 63.7658 83.3198 63.9138 82.7747 64.0323C81.8114 64.2417 81.081 64.9653 80.4083 65.638C79.8212 66.2251 79.9534 66.6727 79.7021 67.3765C79.4963 67.9526 79.4613 68.4646 79.7322 69.0064C79.9768 69.4956 80.4953 69.9176 80.517 70.5035C80.5423 71.1857 80.4539 71.5663 79.9979 72.073C79.7775 72.3179 79.6575 72.5292 79.3761 72.7069C79.0971 72.8831 78.8134 73.0657 78.6698 73.3528" stroke="#009CFF" stroke-linecap="round"/>
<path d="M78.1265 73.6787C78.1265 74.7291 78.1265 75.7795 78.1265 76.8298C78.1265 77.4517 77.7145 77.733 77.5892 78.2967C77.4604 78.8763 78.0805 79.2872 78.2593 79.7878C78.3844 80.1381 78.5545 80.4979 78.368 80.8502C78.2556 81.0624 78.0747 81.2962 78.1325 81.5565C78.2161 81.9328 78.9761 82.6873 79.3217 82.8906C79.8582 83.2062 80.3239 83.9116 80.4023 84.5386C80.4833 85.1869 80.6085 85.8687 80.8188 86.4763C81.0083 87.0236 81.3669 87.1452 81.7545 87.5328C82.0956 87.8739 82.2555 88.3713 82.2555 88.8367C82.2555 89.3213 82.0441 89.6057 82.5815 89.9534C83.0511 90.2573 83.293 90.8069 83.6198 91.2272C83.9285 91.624 84.4446 91.8435 84.6702 92.3198C84.8678 92.7371 85.1971 93.194 85.0264 93.672C84.8403 94.1931 84.9314 94.8845 85.1652 95.4105C85.286 95.6824 85.5067 95.7614 85.6964 96.0021C86.0901 96.5018 86.4996 96.8686 86.8494 97.4449C87.2228 98.0599 87.7824 98.6261 88.0145 99.3223" stroke="#009CFF" stroke-linecap="round"/>
<path d="M88.0144 99.3223C88.0144 100.662 87.8477 102.073 87.6341 103.397C87.4599 104.477 87.6776 105.654 87.2055 106.651C86.7372 107.639 86.4932 108.535 86.4932 109.645C86.4932 110.058 86.5616 110.544 86.4691 110.949C86.3773 111.351 86.2111 111.727 86.1733 112.144C86.1109 112.831 85.9329 113.635 86.0827 114.317C86.1478 114.614 86.3846 114.901 86.3846 115.187C86.3846 115.555 86.4138 115.907 86.1069 116.17C85.8078 116.427 85.8637 117.061 85.7869 117.414C85.7053 117.789 85.9499 117.91 85.9499 118.253C85.9499 118.676 86.099 118.813 86.3846 119.098" stroke="#009CFF" stroke-linecap="round"/>
<path d="M87.9058 99.2139C88.5734 99.4671 89.3464 99.7669 89.9703 100.107C90.2607 100.266 90.405 100.758 90.405 101.055C90.405 101.737 90.405 102.419 90.405 103.101C90.405 103.446 90.4395 103.812 90.3808 104.152C90.3208 104.499 90.0483 104.703 89.9764 105.027C89.8116 105.769 89.6725 106.658 89.3667 107.357C89.1031 107.96 88.7117 108.422 88.4008 108.993C87.8069 110.084 87.5422 111.316 86.7709 112.307C86.2999 112.913 86.3761 113.9 86.0586 114.535" stroke="#009CFF" stroke-linecap="round"/>
<path d="M86.4933 119.315C86.5531 119.854 87.0296 119.961 87.2539 120.354C87.5401 120.855 87.3903 121.07 87.3626 121.597C87.3451 121.929 87.2352 122.506 87.5799 122.63C87.9288 122.754 88.7017 123.141 88.7812 123.499C88.8748 123.92 88.8908 124.52 89.2098 124.857C89.5182 125.183 89.9704 125.754 89.9704 126.209C89.9704 127.512 90.7226 128.326 91.6003 129.203C92.3954 129.999 92.1311 131.312 93.363 131.57C93.6741 131.635 94.6355 131.922 94.7453 132.306C94.8901 132.813 94.6427 133.353 94.6427 133.84C94.6427 134.103 94.5622 134.659 94.8057 134.854C94.9223 134.947 95.1702 135.138 95.186 135.288C95.2139 135.553 95.4274 135.807 95.5361 136.049C95.6972 136.407 95.6207 136.858 95.6207 137.244C95.6207 138.329 95.838 139.319 95.838 140.395" stroke="#009CFF" stroke-linecap="round"/>
<path d="M95.838 140.83C95.3668 140.889 95.9692 144.652 96.1096 144.905C96.499 145.606 97.1205 146.114 97.5222 146.812C97.7246 147.164 98.2423 147.765 98.3311 148.165C98.3758 148.366 98.4758 148.705 98.6088 148.865C98.8618 149.168 99.1268 149.408 99.4237 149.74C99.7809 150.139 99.641 150.747 99.641 151.261C99.641 151.749 99.7497 152.201 99.7497 152.674C99.7497 153.415 99.3803 153.83 98.8804 154.304C98.4116 154.748 98.2161 154.771 98.1258 155.493C98.043 156.155 97.7612 156.744 97.0211 156.797C96.3395 156.846 95.6716 157.023 95.1317 157.455C94.9744 157.581 94.8951 157.891 94.697 158.059C94.1114 158.554 93.4542 158.969 92.9102 159.513C92.5392 159.884 92.347 160.645 91.9262 160.908C91.5145 161.165 90.9807 161.077 90.9483 161.693C90.9168 162.292 90.6922 162.981 90.6223 163.54C90.5751 163.918 89.8995 164.404 89.7531 164.844" stroke="#009CFF" stroke-linecap="round"/>
<path d="M89.427 164.735C89.2641 164.919 89.0064 165.665 88.9924 165.931C88.971 166.336 88.8837 166.717 88.8837 167.126C88.8837 167.412 88.985 167.687 89.1011 167.947C89.2882 168.365 89.307 168.905 89.3184 169.359C89.3343 169.996 89.221 170.048 88.8294 170.44C88.5979 170.671 88.5258 171.119 88.5638 171.442C88.6588 172.25 88.8805 172.179 89.264 172.776C89.4724 173.1 89.8398 173.302 90.1333 173.537C90.4156 173.763 90.2146 174.338 90.405 174.623" stroke="#009CFF" stroke-linecap="round"/>
<path d="M99.641 152.456C100.076 152.504 100.312 153.419 100.673 153.7C101.05 153.992 101.543 154.447 101.79 154.847C102.261 155.608 102.683 156.431 102.683 157.346" stroke="#009CFF" stroke-linecap="round"/>
<path d="M90.2964 174.949C90.4694 175.317 90.5358 175.656 90.731 176.036C90.9585 176.478 91.356 176.692 91.7331 176.984C92.1693 177.321 92.7319 177.824 93.0732 178.263C93.313 178.572 93.8052 178.692 94.0995 178.97C94.4816 179.33 94.8758 179.686 95.2464 180.056C95.5354 180.345 95.9682 180.557 96.2123 180.871C96.8715 181.719 97.4114 182.057 98.4458 182.531C99.5539 183.039 99.6396 183.807 100.233 184.777C100.816 185.73 101.576 186.083 102.364 186.739C102.84 187.136 103.671 187.02 104.223 187.065C105.244 187.147 106.271 187.119 107.296 187.119C108.092 187.119 108.86 187.318 109.662 187.336C110.074 187.346 110.476 187.467 110.881 187.53C111.118 187.566 111.432 187.488 111.648 187.608C111.823 187.705 112.019 187.554 112.209 187.554C112.586 187.554 113.001 187.605 113.374 187.548C113.875 187.471 114.612 187.248 115.071 187.554" stroke="#009CFF" stroke-linecap="round"/>
<path d="M114.853 187.879C115.211 187.924 115.377 188.476 115.662 188.64C115.993 188.828 116.215 189.171 116.61 189.352C117.443 189.734 118.234 190.082 119.043 190.487C119.702 190.816 120.628 191.278 121.373 191.356C121.612 191.381 121.985 191.877 122.133 192.062C122.344 192.325 123.243 192.311 123.606 192.443C124.008 192.589 124.277 192.801 124.633 193.01C124.919 193.178 125.021 193.558 125.309 193.747C126.048 194.231 127.127 194.39 127.989 194.513C128.327 194.561 128.484 195.099 128.707 195.322C129.006 195.621 129.391 195.624 129.788 195.727C130.273 195.851 130.51 196.081 130.766 196.487C130.859 196.635 131.075 197.145 131.213 197.224C131.59 197.439 131.937 197.683 132.293 197.93C132.873 198.331 133.077 198.851 133.5 199.403C133.909 199.936 134.432 200.325 135.01 200.646C136.213 201.315 138.042 200.771 139.35 201.051C139.757 201.138 140.523 201.137 140.877 201.413C141.283 201.729 141.893 202.212 142.398 202.325C142.765 202.406 143.234 202.331 143.612 202.331C144.811 202.331 146.106 202.486 147.27 202.162C147.647 202.057 148.202 201.973 148.435 201.624C148.701 201.226 149.35 201.207 149.775 201.141C151.31 200.905 152.955 200.592 154.514 200.592C155.694 200.592 156.892 200.529 158.069 200.598C158.561 200.627 158.791 200.895 159.204 201.081C159.935 201.41 161.181 201.758 161.987 201.787C162.369 201.801 162.965 201.661 163.315 201.811C164.106 202.15 164.593 202.803 165.488 202.983" stroke="#009CFF" stroke-linecap="round"/>
<path d="M129.46 273.622C130.382 274.032 131.551 274.25 132.545 274.25C135.009 274.25 137.473 274.25 139.937 274.25C140.68 274.25 141.484 274.155 142.213 274.313C143.126 274.512 144.249 274.373 145.103 274.753C145.583 274.966 146.153 274.907 146.667 275.067C147.229 275.243 147.726 275.507 148.314 275.646C149.839 276.008 151.315 275.952 152.837 276.142C153.047 276.168 153.85 276.262 153.961 276.456C154.11 276.716 154.108 277.177 154.443 277.273C155.508 277.577 156.637 277.716 157.675 278.013C158.369 278.211 158.641 278.916 159.175 279.332C159.478 279.567 159.825 279.872 160.18 280.03C160.679 280.252 160.568 280.66 160.683 281.098C160.843 281.706 161.394 281.683 161.919 281.915C162.488 282.166 163.031 282.501 163.58 282.794C163.859 282.943 164.489 283.1 164.613 283.45C164.814 284.017 164.806 284.973 165.534 285.084C166.419 285.219 167.391 285.307 168.285 285.307C169.047 285.307 169.812 285.322 170.574 285.307C171.323 285.292 172.074 285.134 172.808 284.993C173.383 284.882 173.965 284.948 174.539 284.805C175.736 284.505 176.995 284.444 178.225 284.428C179.481 284.411 180.582 284.081 181.757 283.702C182.272 283.536 182.818 283.273 183.237 282.92C183.527 282.675 184.102 282.689 184.451 282.676C185.714 282.628 186.985 282.669 188.248 282.669C188.381 282.669 189.701 282.522 189.763 282.738C189.842 283.016 189.788 283.235 189.993 283.492C190.481 284.102 192.388 283.799 193.079 283.799C193.57 283.799 193.998 283.925 194.531 283.925C195.351 283.925 196.201 283.856 197.002 284.079C197.351 284.176 197.675 284.572 197.937 284.805C198.235 285.069 198.626 285.196 198.942 285.433" stroke="#009CFF" stroke-linecap="round"/>
<path d="M198.314 285.434C198.626 285.468 199.013 285.843 199.305 285.964C200.135 286.307 201.123 286.742 202.028 286.816C203.28 286.917 204.572 287.604 205.755 288.072C206.806 288.488 207.789 289.02 208.84 289.454C209.326 289.655 209.749 290.043 210.243 290.208C211.195 290.525 212.439 291.191 213.203 291.786C213.706 292.177 213.907 292.218 214.571 292.218C215.111 292.218 215.459 291.764 215.932 292.191C216.219 292.448 216.303 292.784 216.561 293.07C217.116 293.687 218.155 293.59 218.878 293.852C219.587 294.108 220.463 293.978 221.21 293.978C222.697 293.978 224.177 293.823 225.628 293.482C226.467 293.285 226.898 293.336 227.659 293.677C228.306 293.967 228.747 294.857 229.405 294.857C230.748 294.857 232.143 294.74 233.481 294.885C234.21 294.964 235.014 295.12 235.715 295.332C236.167 295.468 236.356 295.788 236.706 295.988C238.246 296.868 239.865 297.119 241.606 297.119C243.083 297.119 244.455 297.547 245.906 297.614C246.759 297.654 247.62 297.621 248.475 297.621C249.07 297.621 249.413 297.826 249.983 297.9C250.819 298.01 251.565 298.046 252.37 297.845C252.98 297.692 253.489 297.433 254.129 297.342C254.474 297.293 254.792 297.24 255.106 297.091C255.741 296.79 256.561 296.616 257.256 296.616C258.265 296.616 260.063 296.369 260.956 296.937C261.131 297.049 261.531 297.046 261.64 297.182C261.752 297.321 261.863 297.46 262.017 297.558C262.505 297.873 263.068 297.998 263.65 297.998C264.468 297.998 265.284 297.651 266.065 297.621C266.878 297.59 267.787 297.151 268.606 296.993C269.561 296.809 270.115 297.051 270.993 297.37C272.676 297.982 273.986 298.626 275.838 298.626" stroke="#009CFF" stroke-linecap="round"/>
<path d="M275.778 298.745C276.34 298.745 276.738 298.708 277.252 298.561C277.605 298.46 277.908 298.117 278.333 298.117C278.558 298.117 278.78 297.966 279.01 297.943C279.296 297.914 279.56 297.912 279.832 297.809C280.455 297.571 281.007 297.155 281.585 296.832C281.861 296.678 282.299 296.612 282.521 296.434C282.665 296.319 283.227 296.414 283.398 296.414C284.241 296.414 285.054 296.462 285.883 296.633C286.548 296.77 287.245 296.855 287.915 296.942C290.098 297.224 292.259 297.669 294.475 297.669C295.376 297.669 296.532 297.829 297.388 297.53C298.038 297.302 298.653 297.001 299.316 296.793C300.574 296.398 301.902 296.286 303.181 295.961C303.604 295.853 304.363 295.78 304.665 295.448C304.995 295.085 305.27 294.781 305.726 294.576C306.383 294.281 307.146 294.182 307.783 293.864C308.216 293.647 308.595 293.357 309.048 293.142C309.754 292.806 310.421 292.665 311.199 292.599C311.572 292.567 312.177 292.682 312.534 292.539C312.933 292.38 313.903 292.959 314.277 293.142C314.823 293.409 315.41 293.632 315.941 293.924C316.656 294.317 316.912 295.31 317.644 295.717C317.855 295.834 318.07 296.039 318.312 296.095C319.351 296.338 320.821 296.17 321.768 295.697" stroke="#009CFF" stroke-linecap="round"/>
<path d="M321.589 295.698C322.062 295.224 322.471 295.117 323.033 294.836C323.337 294.684 323.604 294.452 323.96 294.443C324.402 294.431 324.824 294.462 325.25 294.313C325.712 294.151 325.996 294.337 326.34 294.622C326.833 295.029 327.555 295.444 328.133 295.718C329.056 296.154 330.04 295.928 331.007 296.106C332.596 296.399 334.177 296.505 335.798 296.505C336.335 296.505 336.871 296.505 337.407 296.505C337.812 296.505 338.186 296.415 338.583 296.415C339.111 296.415 339.521 296.209 340.027 296.126C341.178 295.937 342.318 295.806 343.404 295.299C344.362 294.852 345.414 294.413 346.472 294.283C347.073 294.21 347.588 293.994 348.215 293.994C348.894 293.994 349.515 293.884 350.197 293.95C351.208 294.047 352.192 294.197 353.201 294.313C354.989 294.518 356.828 294.594 358.525 295.16" stroke="#009CFF" stroke-linecap="round"/>
<path d="M358.435 295.339C358.724 295.339 359.101 295.565 359.391 295.648C360.002 295.821 360.521 296.098 361.105 296.305C362.393 296.762 363.903 296.933 365.069 297.67C366.676 298.685 368.591 298.83 370.458 298.905C371.451 298.945 372.154 299.395 373.003 299.866C373.793 300.305 374.541 300.387 375.464 300.499C376.787 300.658 377.994 300.718 379.344 300.718C380.239 300.718 381.099 300.793 381.993 300.902C383.258 301.057 384.508 301.376 385.769 301.575C386.954 301.761 388.117 302.113 389.275 302.421" stroke="#009CFF" stroke-linecap="round"/>
<path d="M388.737 302.511C388.983 302.535 389.218 302.691 389.454 302.76C389.801 302.861 390.235 302.843 390.55 303.029C390.792 303.171 391.159 303.306 391.426 303.387C392.911 303.839 394.26 304.522 395.72 305.001C397.249 305.503 398.803 305.854 400.322 306.386C401.081 306.651 401.816 306.957 402.583 307.212C403.33 307.461 404.111 307.547 404.884 307.691C406.015 307.9 407.121 308.341 408.261 308.517C409.313 308.68 410.352 308.754 411.418 308.677C411.974 308.636 412.467 308.195 412.992 307.999C414.083 307.592 414.764 308.467 415.722 308.876C416.257 309.105 416.918 309.185 417.405 309.503C417.847 309.793 418.309 309.983 418.8 310.201C419.924 310.699 421.091 310.669 422.296 310.669C423.027 310.669 423.785 310.545 424.507 310.579C424.895 310.598 425.302 311.051 425.643 311.207C426.033 311.386 426.413 311.602 426.768 311.834C427.629 312.397 428.928 312.523 429.916 312.711C430.363 312.796 430.831 312.831 431.271 312.93C431.991 313.092 432.578 313.453 433.323 313.538C435.928 313.832 438.492 313.627 441.093 313.627C441.557 313.627 442.115 313.554 442.557 313.717C442.905 313.846 443.21 314.062 443.573 314.165C444.747 314.498 445.843 314.669 447.059 314.793C447.866 314.875 448.929 314.684 449.699 314.952C449.976 315.049 451.112 314.924 451.223 314.703" stroke="#009CFF" stroke-linecap="round"/>
<path d="M451.133 314.793C451.859 314.874 452.565 314.967 453.305 314.972C454.194 314.978 455.177 314.88 456.044 315.117C456.932 315.359 457.926 315.853 458.833 315.953C459.335 316.009 459.805 316.246 460.288 316.387C461.137 316.635 462.046 316.837 462.917 316.984C464.555 317.261 465.985 317.346 467.654 317.159C468.545 317.059 469.402 316.855 470.299 316.855C470.993 316.855 471.687 316.855 472.381 316.855C473.67 316.855 475.008 316.825 476.275 317.084C476.961 317.225 477.56 317.303 478.258 317.303C479.484 317.303 480.709 317.124 481.933 317.124C483.438 317.124 484.865 317.362 486.366 317.482" stroke="#009CFF" stroke-linecap="round"/>
<path d="M486.545 317.393C487.123 317.681 487.768 317.698 488.398 317.801C489.646 318.004 490.949 318.052 492.173 318.379C492.664 318.51 493.164 318.596 493.643 318.777C494.06 318.936 494.482 319.082 494.903 319.235C495.088 319.303 495.523 319.367 495.68 319.504C496.219 319.976 497.221 320.351 497.931 320.351" stroke="#009CFF" stroke-linecap="round"/>
<path d="M68.115 264.231C67.2046 264.713 66.8927 264.987 66.6083 265.84C66.498 266.171 66.2444 267.328 65.9975 267.54C65.2723 268.162 65.313 269.207 64.6741 269.871C64.129 270.438 63.4765 270.489 62.7296 270.655C61.1247 271.012 61.1793 272.871 59.7366 273.211C58.3584 273.535 56.5983 273.721 55.186 273.76C54.871 273.769 54.2073 273.966 54.005 274.218C53.836 274.43 53.7493 274.922 53.5367 275.043C52.5887 275.585 51.3844 275.41 50.3401 275.41C49.6475 275.41 49.2731 275.764 48.7927 276.244C48.1647 276.872 47.9244 277.862 47.2249 278.525C46.6193 279.098 44.9248 278.46 44.2217 278.352C43.6962 278.271 43.0444 278.819 42.7862 279.258C42.4066 279.903 41.3467 280.36 40.7094 280.724C39.9399 281.163 39.2339 281.734 38.3883 282.047C37.4709 282.387 36.8104 283.341 35.945 283.656C35.2483 283.909 34.7003 284.389 33.9293 284.389C33.1557 284.389 31.7099 284.352 30.9566 284.613C30.3308 284.829 30.113 285.919 30.0099 286.486C29.8878 287.157 28.3694 287.137 27.8414 287.137C26.4296 287.137 23.8391 286.579 23.586 288.603C23.4002 290.09 18.9741 289.52 18.0886 289.52C17.2301 289.52 16.3715 289.52 15.513 289.52C14.9971 289.52 13.5059 289.783 13.1002 289.377C12.034 288.311 9.73027 287.012 8.23402 286.954C7.46536 286.924 7.2165 286.268 6.91057 285.58C6.58738 284.853 5.71427 284.102 5.11882 283.615C4.69576 283.269 3.95267 283.266 3.44924 283.014C2.9003 282.74 2.33763 282.299 1.87128 281.905C1.37217 281.482 0.680176 280.678 0.680176 279.991" stroke="#009CFF" stroke-linecap="round"/>
<path d="M60.5 32.9997C60.1 31.7997 64.6667 26.4997 67 23.9997C67.8333 23.9997 70.3 23.5998 73.5 22C77.5 20.0003 85.5 14.5 89.5 14.5C93.5 14.5 97.5 16 100.5 19.4997C103.5 22.9995 107.5 19.9997 113 19.4997C118.5 18.9997 128 23.9997 129.5 26.4997C131 28.9997 141.5 32.9997 144.5 32.9997C147.5 32.9997 152.5 43.9997 152.5 47.9997C152.5 51.9997 147 54.9997 144.5 54.9997C142 54.9997 140.5 58.9997 138 60.4997C135.5 61.9997 131 65.4997 128 66.4997C125 67.4997 119.5 63.9997 118 60.4997C116.5 56.9997 110 57.9997 107.5 54.9997C105 51.9997 99.5 52.4997 96 50.4997C93.2 48.8997 91.8333 48.1664 91.5 47.9997C90.6667 47.3331 87.7 46.0997 82.5 46.4997C76 46.9997 78.5 46.9997 76 43.9997C73.5 40.9997 70.5 40.4997 67 40.4997C63.5 40.4997 61 34.4997 60.5 32.9997Z" fill="#009CFF"/>
<path d="M98.9246 183.321C99.2549 183.633 99.5342 183.954 99.7023 184.158L71.0452 265.393C71.0283 265.395 71.0056 265.396 70.9777 265.393C70.9217 265.386 70.8764 265.368 70.8515 265.351C70.8506 265.351 70.8497 265.35 70.8489 265.35C70.7273 264.895 70.5524 264.429 70.2956 264.031C70.0324 263.624 69.6656 263.264 69.1607 263.093C68.2257 262.776 67.2688 263.248 66.567 263.752C66.5648 263.752 66.5623 263.752 66.5595 263.751C66.5253 263.748 66.4736 263.732 66.4216 263.699C66.3928 263.681 66.3723 263.663 66.3587 263.649L94.9847 182.501C95.273 182.449 95.7558 182.375 96.2767 182.353C96.8549 182.328 97.4175 182.37 97.8133 182.53C98.1615 182.67 98.5558 182.972 98.9246 183.321ZM66.5785 263.752C66.5785 263.752 66.5781 263.752 66.5772 263.752L66.5785 263.752Z" fill="#FF831E" fill-opacity="0.2" stroke="#FF831E" stroke-linecap="round" stroke-linejoin="round"/>
<path d="M101.5 132L92.5 142L98 147.5L109 133.5L118 125.5L122 119L123.5 108V105L127 103.5L133 105.5L134.5 106L138 107L150 114L156 116H169.5L170.5 118L177.5 121H185.5L189 121.5L208.5 125.5L214 124L216 123.5L218 124L220.5 124.5L226.5 125.5L232 123.5L234 123L235 123.5L238 124L241.5 131L248 133.5L254 135.5L261 137.5H275L277.5 138.5L285 140L291 139L304.5 137.5H308.5H322L324.5 138.5L331.5 141.5L333.5 143L341.5 152L347.5 157.5L353 159.5L358.5 161L366.5 163H378L387.5 162L394 155.5L399.5 154.5L411 152.5L424 150L433.5 144.5L445.5 142.5L450 142L467.5 141L478.5 143L485 144L498.5 143.5L504.5 142.5L517.5 138.5L514.5 131L504.5 134L497 136H487.5L476.5 134.5L464 133L445.5 134L439.5 135.5L431.5 136.5L427 139L420 143L417.5 143.5L400 146L391.5 148L387 151L381 157L380 155H368.5L362.5 153.5L357 152.5L353 152L349 148L340.5 139.5L335.5 134.5L329 131.5L322 129.5H304L286 131.5H282L275 129.5H261L258.5 128.5L250.5 126L248.5 127L245 120.5L239.5 116.5L231.5 115L223.5 118L222 117L220 116.5L214 116L206.5 117.5L204.5 116.5L191 113.5L186 113H178L177 112.5L170 108H155.5L154 107L143.5 101L137.5 98.5L130 96L122 97L117.5 103L115 109.5V115L113.5 118L104.5 126.5L101.5 132Z" fill="#FF0A0A" fill-opacity="0.2"/>
<path d="M92.5 142L101.5 132L104.5 126.5L113.5 118L115 115V109.5L117.5 103L122 97L130 96L137.5 98.5L143.5 101L154 107L155.5 108H170L177 112.5L178 113H186L191 113.5L204.5 116.5L206.5 117.5L214 116L220 116.5L222 117L223.5 118L231.5 115L239.5 116.5L245 120.5L248.5 127L250.5 126L258.5 128.5L261 129.5H275L282 131.5H286L304 129.5H322L329 131.5L335.5 134.5L340.5 139.5L349 148L353 152L357 152.5L362.5 153.5L368.5 155H380L381 157L387 151L391.5 148L400 146L417.5 143.5L420 143L427 139L431.5 136.5L439.5 135.5L445.5 134L464 133L476.5 134.5L487.5 136H497L504.5 134L514.5 131M517.5 138.5L504.5 142.5L498.5 143.5L485 144L478.5 143L467.5 141L450 142L445.5 142.5L433.5 144.5L424 150L411 152.5L399.5 154.5L394 155.5L387.5 162L378 163H366.5L358.5 161L353 159.5L347.5 157.5L341.5 152L333.5 143L331.5 141.5L324.5 138.5L322 137.5H308.5H304.5L291 139L285 140L277.5 138.5L275 137.5H261L254 135.5L248 133.5L241.5 131L238 124L235 123.5L234 123L232 123.5L226.5 125.5L220.5 124.5L218 124L216 123.5L214 124L208.5 125.5L189 121.5L185.5 121H177.5L170.5 118L169.5 116H156L150 114L138 107L134.5 106L133 105.5L127 103.5L123.5 105V108L122 119L118 125.5L109 133.5L98 147.5" stroke="#FF0A0A" stroke-dasharray="3 2"/>
<path d="M407.141 89.5996H408.441V93.4316C408.441 94.4785 408.32 95.3535 408.078 96.0566C407.695 97.0254 406.973 97.9082 405.91 98.7051C405.535 98.3379 405.164 98.002 404.797 97.6973C406.109 96.8223 406.836 95.9238 406.977 95.002C406.336 95.3379 405.863 95.6152 405.559 95.834L404.762 94.7441C405.02 94.4629 405.148 94.0527 405.148 93.5137V92.9629L404.598 93.7715C404.371 93.5059 404.156 93.252 403.953 93.0098V98.5762H402.523V93.6191C402.227 94.4863 401.891 95.2715 401.516 95.9746C401.375 95.084 401.25 94.3691 401.141 93.8301C401.656 92.8379 402.078 91.752 402.406 90.5723H401.27V89.1895H402.523V87.0801H403.953V89.1895H404.914V90.5723H403.953V91.5449C404.375 91.873 404.773 92.1895 405.148 92.4941V87.7246C406.086 87.6152 407.078 87.3965 408.125 87.0684L408.805 88.3574C408.055 88.5527 407.305 88.7051 406.555 88.8145V93.7715C406.625 93.7402 406.82 93.6504 407.141 93.502V89.5996ZM408.945 87.5723H412.367V94.8848C412.367 95.7988 411.969 96.2832 411.172 96.3379C411.031 96.3457 410.758 96.3496 410.352 96.3496V98.5527H408.945V87.5723ZM410.352 94.9316C410.773 94.9863 410.984 94.7871 410.984 94.334V88.9082H410.352V94.9316ZM421.438 91.9902C421.875 92.7949 422.305 93.584 422.727 94.3574C422.758 93.0215 422.773 91.5098 422.773 89.8223H418.73C418.316 90.5488 417.867 91.1895 417.383 91.7441C416.898 91.2441 416.512 90.8809 416.223 90.6543C417.066 89.6543 417.734 88.4863 418.227 87.1504C419.109 87.2129 419.668 87.2559 419.902 87.2793C419.762 87.6621 419.613 88.0254 419.457 88.3691H424.355C424.348 91.0801 424.32 93.541 424.273 95.752C424.242 96.7207 424.016 97.4121 423.594 97.8262C423.195 98.2246 422.617 98.4238 421.859 98.4238C421.234 98.4238 420.527 98.4238 419.738 98.4238C419.637 97.8457 419.523 97.3027 419.398 96.7949C420.367 96.8652 421.027 96.9004 421.379 96.9004C421.855 96.9004 422.184 96.8105 422.363 96.6309C422.566 96.4277 422.68 95.998 422.703 95.3418L421.719 95.8457C421.641 95.6895 421.562 95.5332 421.484 95.377C419.008 95.5254 417.559 95.6465 417.137 95.7402L416.656 94.4277C417.25 94.0762 418.031 92.7441 419 90.4316L420.605 91.0527L418.719 94.2051C419.438 94.1816 420.152 94.1543 420.863 94.123C420.59 93.5918 420.328 93.1074 420.078 92.6699L421.438 91.9902ZM414.793 93.373C415.27 93.6074 415.781 93.8105 416.328 93.9824C415.883 95.248 415.398 96.7363 414.875 98.4473C414.32 98.2363 413.789 98.0527 413.281 97.8965C413.891 96.3809 414.395 94.873 414.793 93.373ZM414.336 87.0332C415.148 87.6191 415.898 88.1738 416.586 88.6973L415.531 89.8926C414.93 89.3535 414.195 88.7676 413.328 88.1348L414.336 87.0332ZM414.172 90.209C414.906 90.709 415.602 91.2402 416.258 91.8027L415.156 93.0215C414.688 92.5527 414.02 91.9824 413.152 91.3105L414.172 90.209ZM436.578 89.6816C435.695 90.5645 434.686 91.459 433.549 92.3652C434.439 93.7012 435.531 94.7988 436.824 95.6582C436.52 96.0879 436.191 96.6426 435.84 97.3223C434.234 96.1621 432.926 94.4785 431.914 92.2715V96.4785C431.914 97.0215 431.795 97.4492 431.557 97.7617C431.322 98.0742 430.99 98.2656 430.561 98.3359C430.135 98.4102 429.375 98.4473 428.281 98.4473C428.164 97.791 428.023 97.1816 427.859 96.6191C428.422 96.6816 428.98 96.7129 429.535 96.7129C430.035 96.7129 430.285 96.4082 430.285 95.7988V87.0684H431.914V89.0312C432.156 89.7227 432.434 90.375 432.746 90.9883C433.703 90.1367 434.535 89.3145 435.242 88.5215L436.578 89.6816ZM429.664 89.541V90.959C429.109 93.6777 427.867 95.8652 425.938 97.5215C425.648 96.8496 425.375 96.2988 425.117 95.8691C426.539 94.6582 427.539 93.0645 428.117 91.0879H425.516V89.541H429.664ZM442.391 87.2441L444.312 87.0332C444.422 87.3066 444.553 87.6543 444.705 88.0762H448.684V89.4355H439.684V92.2598C439.684 95.1191 439.215 97.2402 438.277 98.623C437.887 98.1074 437.492 97.6387 437.094 97.2168C437.773 96.0996 438.105 94.4434 438.09 92.248V88.0762H442.777L442.391 87.2441ZM439.59 95.4238H443.691V94.6035H440.305V93.2676C440.594 92.7988 440.879 92.3105 441.16 91.8027H439.965V90.4434H441.881C442.045 90.123 442.207 89.7949 442.367 89.459L443.996 89.7051L443.609 90.4434H448.391V91.8027H442.877L442.051 93.2676H443.691V92.166H445.262V93.2676H448.203V94.6035H445.262V95.4238H448.754V96.7832H445.262V98.4941H443.691V96.7832H439.59V95.4238ZM450.219 88.2988H459.781V90.0566H450.219V88.2988ZM449.375 95.541H460.648V97.3223H449.375V95.541ZM471.383 87.4316V91.334H462.676V87.4316H471.383ZM469.695 89.9395V88.8262H464.363V89.9395H469.695ZM461.188 92.002H472.824V93.4316H464.756L464.645 94.1699H471.43L471.195 96.7129C471.137 97.3105 470.916 97.748 470.533 98.0254C470.154 98.3066 469.662 98.4512 469.057 98.459C468.455 98.4668 467.34 98.4707 465.711 98.4707C465.602 97.9551 465.457 97.4004 465.277 96.8066C466.414 96.8965 467.299 96.9414 467.932 96.9414C468.436 96.9414 468.791 96.916 468.998 96.8652C469.205 96.8105 469.35 96.7188 469.432 96.5898C469.514 96.457 469.574 96.1191 469.613 95.5762H462.734L463.08 93.4316H461.188V92.002ZM484.578 89.6816C483.695 90.5645 482.686 91.459 481.549 92.3652C482.439 93.7012 483.531 94.7988 484.824 95.6582C484.52 96.0879 484.191 96.6426 483.84 97.3223C482.234 96.1621 480.926 94.4785 479.914 92.2715V96.4785C479.914 97.0215 479.795 97.4492 479.557 97.7617C479.322 98.0742 478.99 98.2656 478.561 98.3359C478.135 98.4102 477.375 98.4473 476.281 98.4473C476.164 97.791 476.023 97.1816 475.859 96.6191C476.422 96.6816 476.98 96.7129 477.535 96.7129C478.035 96.7129 478.285 96.4082 478.285 95.7988V87.0684H479.914V89.0312C480.156 89.7227 480.434 90.375 480.746 90.9883C481.703 90.1367 482.535 89.3145 483.242 88.5215L484.578 89.6816ZM477.664 89.541V90.959C477.109 93.6777 475.867 95.8652 473.938 97.5215C473.648 96.8496 473.375 96.2988 473.117 95.8691C474.539 94.6582 475.539 93.0645 476.117 91.0879H473.516V89.541H477.664ZM490.391 87.2441L492.312 87.0332C492.422 87.3066 492.553 87.6543 492.705 88.0762H496.684V89.4355H487.684V92.2598C487.684 95.1191 487.215 97.2402 486.277 98.623C485.887 98.1074 485.492 97.6387 485.094 97.2168C485.773 96.0996 486.105 94.4434 486.09 92.248V88.0762H490.777L490.391 87.2441ZM487.59 95.4238H491.691V94.6035H488.305V93.2676C488.594 92.7988 488.879 92.3105 489.16 91.8027H487.965V90.4434H489.881C490.045 90.123 490.207 89.7949 490.367 89.459L491.996 89.7051L491.609 90.4434H496.391V91.8027H490.877L490.051 93.2676H491.691V92.166H493.262V93.2676H496.203V94.6035H493.262V95.4238H496.754V96.7832H493.262V98.4941H491.691V96.7832H487.59V95.4238Z" fill="white"/>
<circle cx="515" cy="92" r="13" fill="white" stroke="#009CFF" stroke-width="2"/>
<circle cx="515" cy="92" r="10" fill="#009CFF"/>
<path d="M519.155 89.7656H520.623V90.21H519.155V89.7656ZM516.165 91.7549H517.438V92.2511H516.165V91.7549ZM515.613 89.7656H516.774V90.21H515.613V89.7656ZM520.26 93.8822H520.545V94.3785H520.26V93.8822ZM519.401 91.7549H520.545V92.2511H519.401V91.7549ZM518.599 93.8822H519.928V94.3785H518.599V93.8822ZM517.796 91.7549H519.043V92.2511H517.796V91.7549ZM517.218 89.7656H518.491V90.21H517.218V89.7656ZM516.994 93.8822H518.267V94.3785H516.994V93.8822ZM515.721 95.8197H517.05V96.3159H515.721V95.8197ZM517.412 95.8197H518.879V96.3159H517.412V95.8197ZM519.268 95.8197H520.515V96.3159H519.268V95.8197ZM515.332 93.8822H516.549V94.3785H515.332V93.8822ZM513.951 89.7656H515.168V90.21H513.951V89.7656ZM509.744 87.7461V96.2598H515.056V96.221L511.966 87.7461H509.744ZM514.396 91.7549H515.807V92.2511H514.396V91.7549Z" fill="white"/>
<path d="M38.6172 97.9941H41.4062V97.4785H39.0859V96.4707H41.4062V95.9551H38.8516V94.9473H41.4062V94.0098H42.9297V94.9473H45.6367V95.9551H42.9297V96.4707H45.3789V97.4785H42.9297V97.9941H45.8242V99.002H38.6172V97.9941ZM34.2461 98.1934H35.6992V94.0801H37.082V98.1934H38.3828V99.4355H37.082V100.678L37.5625 100.221C38.0625 100.697 38.5234 101.162 38.9453 101.615L38.0078 102.529C37.7812 102.244 37.4727 101.887 37.082 101.457V105.553H35.6992V101.955C35.3398 102.799 34.9531 103.525 34.5391 104.135C34.4062 103.643 34.2422 103.061 34.0469 102.389C34.6055 101.65 35.1328 100.666 35.6289 99.4355H34.2461V98.1934ZM37.8203 94.959L38.7695 95.252C38.543 96.0254 38.2891 96.8105 38.0078 97.6074L37.1406 97.291L37.8203 94.959ZM35.0312 94.959C35.2656 95.834 35.4648 96.6152 35.6289 97.3027L34.7031 97.5957C34.5391 96.8301 34.3438 96.0449 34.1172 95.2402L35.0312 94.959ZM40.5742 105.529H39.1445V99.4473H45.2969V103.865C45.2969 104.4 45.1855 104.803 44.9629 105.072C44.7402 105.342 44.4219 105.479 44.0078 105.482C43.5977 105.49 42.957 105.494 42.0859 105.494C42.0156 105.135 41.9141 104.732 41.7812 104.287C42.5977 104.334 43.1211 104.357 43.3516 104.357C43.6953 104.357 43.8672 104.162 43.8672 103.771V103.619H40.5742V105.529ZM43.8672 100.549H40.5742V101.111H43.8672V100.549ZM40.5742 102.646H43.8672V102.084H40.5742V102.646ZM47.4766 94.1152C48.4062 94.7949 49.1016 95.3301 49.5625 95.7207L48.4492 96.9395C47.8242 96.3613 47.1836 95.7949 46.5273 95.2402L47.4766 94.1152ZM49.6094 94.6426H57.7891V96.1543H56.9922V103.115C56.9922 103.889 56.8613 104.443 56.5996 104.779C56.3418 105.115 55.9941 105.322 55.5566 105.4C55.1191 105.479 54.2227 105.518 52.8672 105.518C52.7578 104.947 52.6406 104.389 52.5156 103.842C53.0078 103.877 53.4512 103.895 53.8457 103.895C54.5566 103.895 54.9863 103.801 55.1348 103.613C55.2871 103.426 55.3633 103.127 55.3633 102.717V96.1543H49.6094V94.6426ZM54.2969 97.1738V102.611H51.4961V103.303H50.0312V97.1738H54.2969ZM51.4961 98.5801V101.205H52.832V98.5801H51.4961ZM47.125 97.209C48.0547 97.8965 48.8242 98.4941 49.4336 99.002L48.3438 100.221C47.8828 99.791 47.1562 99.1738 46.1641 98.3691L47.125 97.209ZM47.6523 100.49C48.168 100.686 48.6797 100.857 49.1875 101.006L47.9453 105.529C47.4141 105.334 46.8867 105.166 46.3633 105.025C46.8867 103.4 47.3164 101.889 47.6523 100.49ZM58.2344 101.088H59.582V94.5488H68.4766V101.088H69.8125V102.494H67.1406C68.0117 103.248 68.8203 103.986 69.5664 104.709L68.1367 105.646C67.9336 105.428 67.7227 105.205 67.5039 104.979C62.7617 105.1 60.125 105.244 59.5938 105.412L58.8555 103.994C59.5938 103.732 60.3281 103.232 61.0586 102.494H58.2344V101.088ZM66.9062 95.9316H61.1523V96.8223H66.9062V95.9316ZM61.1523 98.9551H66.9062V98.0645H61.1523V98.9551ZM61.1523 101.088H66.9062V100.197H61.1523V101.088ZM65.4414 102.951L66.1328 102.494H63.168C62.6641 102.959 62.1836 103.385 61.7266 103.771C62.9766 103.76 64.4609 103.721 66.1797 103.654L65.4414 102.951Z" fill="#FA48D0"/>
<circle cx="88" cy="99" r="13" fill="white" stroke="#FA48D0" stroke-width="2"/>
<circle cx="88" cy="99" r="10" fill="#FA48D0"/>
<path d="M92.8311 97.6562H93.25L92.0564 94.5002L90.8627 97.6562H91.2835L90.8627 98.7662H91.2835L90.8627 99.8773H91.8205V102.565H83.125V103.5H93.0137V102.565H92.2922V99.8773H93.25L92.8311 98.7662H93.25L92.8311 97.6562ZM83.509 102.375H89.8641V98.6496H90.4172C90.6006 98.6496 90.694 98.4321 90.5654 98.3012L86.8604 94.5722C86.8378 94.5493 86.8109 94.5312 86.7813 94.5188C86.7516 94.5064 86.7198 94.5 86.6877 94.5C86.6555 94.5 86.6237 94.5064 86.5941 94.5188C86.5644 94.5312 86.5376 94.5493 86.515 94.5722L82.8096 98.3012C82.681 98.4302 82.7744 98.6496 82.9577 98.6496H83.5109V102.375H83.509ZM86.875 98.6252H88V99.7502H86.875V98.6252ZM86.875 100.125H88V101.25H86.875V100.125ZM85 98.6252H86.125V99.7502H85V98.6252ZM85 100.125H86.125V101.25H85V100.125Z" fill="white"/>
<path d="M101.234 6.25195H104.07V5.04492H105.781V6.25195H108.242V5.04492H109.953V6.25195H112.742V7.77539H109.953V8.75977H108.242V7.77539H105.781V8.75977H104.07V7.77539H101.234V6.25195ZM104.633 8.90039C105.285 10.1621 106.074 11.2246 107 12.0879C107.945 11.2012 108.688 10.1387 109.227 8.90039L110.82 9.65039C110.02 11.1152 109.201 12.2852 108.365 13.1602C109.643 13.9922 111.125 14.5293 112.812 14.7715C112.398 15.4355 112.062 16.0215 111.805 16.5293C109.945 16.1504 108.328 15.4316 106.953 14.373C105.57 15.3574 103.945 16.0996 102.078 16.5996C101.883 16.1074 101.578 15.5254 101.164 14.8535C102.891 14.5098 104.371 13.9473 105.605 13.166C104.672 12.1973 103.863 11.0332 103.18 9.67383L104.633 8.90039ZM123.277 6.67383L124.801 7.86914C123.477 9.13477 122.117 10.3281 120.723 11.4492V13.9746C120.723 14.4668 120.922 14.7129 121.32 14.7129H122.141C122.445 14.7129 122.646 14.6055 122.744 14.3906C122.842 14.1758 122.945 13.3809 123.055 12.0059C123.672 12.2402 124.254 12.4395 124.801 12.6035C124.723 13.3418 124.621 13.9863 124.496 14.5371C124.371 15.084 124.227 15.4609 124.062 15.668C123.898 15.8789 123.654 16.041 123.33 16.1543C123.01 16.2715 122.617 16.3301 122.152 16.3301H120.676C119.551 16.3301 118.988 15.7324 118.988 14.5371V5.0332H120.723V9.35742C121.57 8.54883 122.422 7.6543 123.277 6.67383ZM115.66 5.17383V8.52539H118.344V10.1426H115.66V14.3027L118.379 13.377C118.363 13.9941 118.375 14.584 118.414 15.1465C116.68 15.6777 115.328 16.2051 114.359 16.7285L113.516 15.3457C113.789 15.1348 113.926 14.791 113.926 14.3145V5.17383H115.66ZM132.066 8.49023H130.789V10.0254H131.914V14.5312C132.234 13.8633 132.398 12.623 132.406 10.8105V5.51367H136.285V15.1465C136.285 15.5098 136.205 15.7949 136.045 16.002C135.889 16.2129 135.668 16.3438 135.383 16.3945C135.102 16.4453 134.52 16.4707 133.637 16.4707C133.543 15.9863 133.438 15.5117 133.32 15.0469C133.148 15.5547 132.914 16.0879 132.617 16.6465C132.234 16.3496 131.773 16.0371 131.234 15.709C131.516 15.3184 131.738 14.9316 131.902 14.5488H129.605V15.2402H128.199V10.0254H129.324V8.49023H127.93V7.10742H129.324V5.06836H130.789V7.10742H132.066V8.49023ZM134.844 7.01367H133.812V8.57227H134.844V7.01367ZM133.807 11.5254H134.844V9.9668H133.812L133.807 11.5254ZM129.605 11.3613V13.2129H130.508V11.3613H129.605ZM133.736 12.9199C133.646 13.834 133.521 14.5 133.361 14.918C133.729 14.9453 134.047 14.959 134.316 14.959C134.668 14.959 134.844 14.7676 134.844 14.3848V12.9199H133.736ZM126.441 5.10352C127.066 5.56445 127.676 6.05664 128.27 6.58008L127.18 7.76367C126.672 7.25586 126.105 6.72852 125.48 6.18164L126.441 5.10352ZM126.125 8.20898C126.688 8.61523 127.305 9.10742 127.977 9.68555L126.922 10.9512C126.305 10.3574 125.719 9.81445 125.164 9.32227L126.125 8.20898ZM126.523 11.5605C127.039 11.7793 127.527 11.9629 127.988 12.1113L126.875 16.541C126.391 16.3613 125.891 16.2012 125.375 16.0605C125.781 14.7715 126.164 13.2715 126.523 11.5605Z" fill="#009CFF"/>
<path d="M472.559 161.053H475.043C475.16 160.701 475.277 160.326 475.395 159.928L477.281 160.279L476.895 161.053H481.406C481.391 161.342 481.352 161.84 481.289 162.547C481.23 163.254 481.1 163.756 480.896 164.053C480.697 164.35 480.445 164.553 480.141 164.662C479.836 164.771 479.312 164.826 478.57 164.826C478.176 164.826 477.672 164.818 477.059 164.803C476.988 164.381 476.867 163.924 476.695 163.432C477.594 163.479 478.303 163.502 478.822 163.502C479.412 163.502 479.707 163.154 479.707 162.459H474.258V165.424H482.414C482.324 167.428 482.248 168.764 482.186 169.432C482.127 170.096 481.9 170.6 481.506 170.943C481.111 171.291 480.576 171.465 479.9 171.465L477.562 171.447C477.477 170.939 477.348 170.361 477.176 169.713C478.137 169.791 478.883 169.83 479.414 169.83C479.75 169.83 480.008 169.75 480.188 169.59C480.371 169.426 480.48 169.203 480.516 168.922C480.551 168.637 480.586 167.939 480.621 166.83H472.559V161.053ZM471.223 167.604H479.789V169.01H471.223V167.604ZM483.234 161.064H485.777V160.057H487.371V161.064H490.512V160.057H492.105V161.064H494.742V162.518H492.105V163.479H490.512V162.518H487.371V163.408H485.777V162.518H483.234V161.064ZM484.031 164.299H487.424C487.443 163.943 487.453 163.568 487.453 163.174H489.023C489.02 163.564 489.008 163.939 488.988 164.299H492.551L492.521 166.244L493.617 165.822C494.07 166.775 494.496 167.814 494.895 168.939L493.523 169.502C493.195 168.533 492.855 167.615 492.504 166.748C492.461 168.322 492.387 169.32 492.281 169.742C492.176 170.164 491.945 170.557 491.59 170.92C491.238 171.287 490.58 171.471 489.615 171.471C489.178 171.471 488.684 171.459 488.133 171.436C488.086 170.834 488.008 170.264 487.898 169.725C488.52 169.811 489.072 169.854 489.557 169.854C489.912 169.854 490.186 169.768 490.377 169.596C490.572 169.424 490.699 169.188 490.758 168.887C490.816 168.582 490.867 167.537 490.91 165.752H488.848C488.59 168.252 487.344 170.217 485.109 171.646C484.695 171.154 484.289 170.705 483.891 170.299C485.891 169.174 487.014 167.658 487.26 165.752H484.031V164.299ZM484.746 166.045L486.035 166.76C485.473 167.666 484.898 168.49 484.312 169.232L483.164 168.342C483.719 167.623 484.246 166.857 484.746 166.045ZM497.836 170.357H496.242V164.369H500.156V163.01H495.434V161.486H500.021C499.869 161.092 499.723 160.725 499.582 160.385L501.445 159.951C501.633 160.439 501.814 160.951 501.99 161.486H506.625V163.01H501.844V164.369H506.039V168.529C506.039 168.873 505.984 169.17 505.875 169.42C505.77 169.67 505.611 169.869 505.4 170.018C505.189 170.166 504.945 170.26 504.668 170.299C504.391 170.342 503.746 170.369 502.734 170.381C502.609 169.865 502.465 169.357 502.301 168.857C502.73 168.889 503.172 168.904 503.625 168.904C504.172 168.904 504.445 168.643 504.445 168.119V165.846H501.844V171.6H500.156V165.846H497.836V170.357Z" fill="#FFB800"/>
<circle cx="489" cy="141" r="13" fill="white" stroke="#FFB800" stroke-width="2"/>
<circle cx="489" cy="141" r="10" fill="#FFB800"/>
<path d="M494.667 146H494.333V139.434C494.333 139.257 494.263 139.087 494.138 138.962C494.013 138.837 493.843 138.767 493.667 138.767H491.333C491.29 138.767 491.246 138.776 491.206 138.792C491.165 138.809 491.129 138.834 491.098 138.865C491.067 138.896 491.042 138.932 491.025 138.973C491.009 139.013 491 139.057 491 139.1V145.667C491 145.711 490.991 145.754 490.975 145.795C490.958 145.835 490.933 145.872 490.902 145.903C490.871 145.934 490.835 145.958 490.794 145.975C490.754 145.992 490.71 146 490.667 146C490.623 146 490.58 145.992 490.539 145.975C490.499 145.958 490.462 145.934 490.431 145.903C490.4 145.872 490.375 145.835 490.359 145.795C490.342 145.754 490.333 145.711 490.333 145.667V136.334C490.333 136.157 490.263 135.987 490.138 135.862C490.013 135.737 489.843 135.667 489.667 135.667H484.667C484.49 135.667 484.32 135.737 484.195 135.862C484.07 135.987 484 136.157 484 136.334V146H483.667C483.578 146 483.493 146.035 483.431 146.098C483.368 146.16 483.333 146.245 483.333 146.334C483.333 146.422 483.368 146.507 483.431 146.569C483.493 146.632 483.578 146.667 483.667 146.667H494.667C494.755 146.667 494.84 146.632 494.902 146.569C494.965 146.507 495 146.422 495 146.334C495 146.245 494.965 146.16 494.902 146.098C494.84 146.035 494.755 146 494.667 146ZM492 141H493C493.088 141 493.173 141.035 493.236 141.098C493.298 141.16 493.333 141.245 493.333 141.334C493.333 141.422 493.298 141.507 493.236 141.569C493.173 141.632 493.088 141.667 493 141.667H492C491.912 141.667 491.827 141.632 491.764 141.569C491.702 141.507 491.667 141.422 491.667 141.334C491.667 141.245 491.702 141.16 491.764 141.098C491.827 141.035 491.912 141 492 141ZM492 143.334H493C493.088 143.334 493.173 143.369 493.236 143.431C493.298 143.494 493.333 143.579 493.333 143.667C493.333 143.755 493.298 143.84 493.236 143.903C493.173 143.965 493.088 144 493 144H492C491.912 144 491.827 143.965 491.764 143.903C491.702 143.84 491.667 143.755 491.667 143.667C491.667 143.579 491.702 143.494 491.764 143.431C491.827 143.369 491.912 143.334 492 143.334ZM486 138.667H488.333C488.422 138.667 488.507 138.702 488.569 138.765C488.632 138.827 488.667 138.912 488.667 139C488.667 139.089 488.632 139.174 488.569 139.236C488.507 139.299 488.422 139.334 488.333 139.334H486C485.912 139.334 485.827 139.299 485.764 139.236C485.702 139.174 485.667 139.089 485.667 139C485.667 138.912 485.702 138.827 485.764 138.765C485.827 138.702 485.912 138.667 486 138.667ZM486 141H488.333C488.422 141 488.507 141.035 488.569 141.098C488.632 141.16 488.667 141.245 488.667 141.334C488.667 141.422 488.632 141.507 488.569 141.569C488.507 141.632 488.422 141.667 488.333 141.667H486C485.912 141.667 485.827 141.632 485.764 141.569C485.702 141.507 485.667 141.422 485.667 141.334C485.667 141.245 485.702 141.16 485.764 141.098C485.827 141.035 485.912 141 486 141ZM486 143.334H488.333C488.422 143.334 488.507 143.369 488.569 143.431C488.632 143.494 488.667 143.579 488.667 143.667C488.667 143.755 488.632 143.84 488.569 143.903C488.507 143.965 488.422 144 488.333 144H486C485.912 144 485.827 143.965 485.764 143.903C485.702 143.84 485.667 143.755 485.667 143.667C485.667 143.579 485.702 143.494 485.764 143.431C485.827 143.369 485.912 143.334 486 143.334Z" fill="white"/>
<path d="M525.961 165.916H530.203V165.049H527.777V164.369C527.191 164.713 526.562 165.033 525.891 165.33C525.766 165.072 525.492 164.627 525.07 163.994C526.383 163.549 527.449 163.01 528.27 162.377H525.586V161.111H529.535C529.801 160.76 530.023 160.385 530.203 159.986L531.738 160.221C531.566 160.533 531.391 160.83 531.211 161.111H536.438V162.377H533.461C534.281 162.979 535.438 163.479 536.93 163.877C536.57 164.432 536.309 164.9 536.145 165.283C535.441 164.986 534.805 164.678 534.234 164.357V165.049H531.773V165.916H536.016V167.135H525.961V165.916ZM525.633 169.994H530.203V169.01H527.051V167.861H530.203V167.299H531.773V167.861H535.066V169.01H531.773V169.994H536.391V171.236H525.633V169.994ZM530.203 162.834H531.773V163.9H533.508C532.852 163.455 532.285 162.947 531.809 162.377H530.262C529.723 162.994 529.145 163.502 528.527 163.9H530.203V162.834ZM547.594 163.479V167.615C548.086 167.826 548.52 167.99 548.895 168.107C548.762 168.826 548.613 169.447 548.449 169.971C548.23 170.822 547.426 171.248 546.035 171.248H544.137C542.652 171.248 541.91 170.506 541.91 169.021V167.674H538.102V163.561H539.719V166.221H541.91V162.928H537.398V161.428H541.91V160.08H543.574V161.428H548.531V162.928H543.574V166.221H545.988V163.479H547.594ZM544.652 169.771H545.707C546.48 169.771 546.914 169.51 547.008 168.986C547.086 168.604 547.156 168.166 547.219 167.674H543.574V168.729C543.574 169.424 543.934 169.771 544.652 169.771ZM551.836 170.357H550.242V164.369H554.156V163.01H549.434V161.486H554.021C553.869 161.092 553.723 160.725 553.582 160.385L555.445 159.951C555.633 160.439 555.814 160.951 555.99 161.486H560.625V163.01H555.844V164.369H560.039V168.529C560.039 168.873 559.984 169.17 559.875 169.42C559.77 169.67 559.611 169.869 559.4 170.018C559.189 170.166 558.945 170.26 558.668 170.299C558.391 170.342 557.746 170.369 556.734 170.381C556.609 169.865 556.465 169.357 556.301 168.857C556.73 168.889 557.172 168.904 557.625 168.904C558.172 168.904 558.445 168.643 558.445 168.119V165.846H555.844V171.6H554.156V165.846H551.836V170.357Z" fill="#FFB800"/>
<circle cx="543" cy="141" r="13" fill="white" stroke="#FFB800" stroke-width="2"/>
<circle cx="543" cy="141" r="10" fill="#FFB800"/>
<path d="M548.667 146H548.333V139.434C548.333 139.257 548.263 139.087 548.138 138.962C548.013 138.837 547.843 138.767 547.667 138.767H545.333C545.29 138.767 545.246 138.776 545.206 138.792C545.165 138.809 545.129 138.834 545.098 138.865C545.067 138.896 545.042 138.932 545.025 138.973C545.009 139.013 545 139.057 545 139.1V145.667C545 145.711 544.991 145.754 544.975 145.795C544.958 145.835 544.933 145.872 544.902 145.903C544.871 145.934 544.835 145.958 544.794 145.975C544.754 145.992 544.71 146 544.667 146C544.623 146 544.58 145.992 544.539 145.975C544.499 145.958 544.462 145.934 544.431 145.903C544.4 145.872 544.375 145.835 544.359 145.795C544.342 145.754 544.333 145.711 544.333 145.667V136.334C544.333 136.157 544.263 135.987 544.138 135.862C544.013 135.737 543.843 135.667 543.667 135.667H538.667C538.49 135.667 538.32 135.737 538.195 135.862C538.07 135.987 538 136.157 538 136.334V146H537.667C537.578 146 537.493 146.035 537.431 146.098C537.368 146.16 537.333 146.245 537.333 146.334C537.333 146.422 537.368 146.507 537.431 146.569C537.493 146.632 537.578 146.667 537.667 146.667H548.667C548.755 146.667 548.84 146.632 548.902 146.569C548.965 146.507 549 146.422 549 146.334C549 146.245 548.965 146.16 548.902 146.098C548.84 146.035 548.755 146 548.667 146ZM546 141H547C547.088 141 547.173 141.035 547.236 141.098C547.298 141.16 547.333 141.245 547.333 141.334C547.333 141.422 547.298 141.507 547.236 141.569C547.173 141.632 547.088 141.667 547 141.667H546C545.912 141.667 545.827 141.632 545.764 141.569C545.702 141.507 545.667 141.422 545.667 141.334C545.667 141.245 545.702 141.16 545.764 141.098C545.827 141.035 545.912 141 546 141ZM546 143.334H547C547.088 143.334 547.173 143.369 547.236 143.431C547.298 143.494 547.333 143.579 547.333 143.667C547.333 143.755 547.298 143.84 547.236 143.903C547.173 143.965 547.088 144 547 144H546C545.912 144 545.827 143.965 545.764 143.903C545.702 143.84 545.667 143.755 545.667 143.667C545.667 143.579 545.702 143.494 545.764 143.431C545.827 143.369 545.912 143.334 546 143.334ZM540 138.667H542.333C542.422 138.667 542.507 138.702 542.569 138.765C542.632 138.827 542.667 138.912 542.667 139C542.667 139.089 542.632 139.174 542.569 139.236C542.507 139.299 542.422 139.334 542.333 139.334H540C539.912 139.334 539.827 139.299 539.764 139.236C539.702 139.174 539.667 139.089 539.667 139C539.667 138.912 539.702 138.827 539.764 138.765C539.827 138.702 539.912 138.667 540 138.667ZM540 141H542.333C542.422 141 542.507 141.035 542.569 141.098C542.632 141.16 542.667 141.245 542.667 141.334C542.667 141.422 542.632 141.507 542.569 141.569C542.507 141.632 542.422 141.667 542.333 141.667H540C539.912 141.667 539.827 141.632 539.764 141.569C539.702 141.507 539.667 141.422 539.667 141.334C539.667 141.245 539.702 141.16 539.764 141.098C539.827 141.035 539.912 141 540 141ZM540 143.334H542.333C542.422 143.334 542.507 143.369 542.569 143.431C542.632 143.494 542.667 143.579 542.667 143.667C542.667 143.755 542.632 143.84 542.569 143.903C542.507 143.965 542.422 144 542.333 144H540C539.912 144 539.827 143.965 539.764 143.903C539.702 143.84 539.667 143.755 539.667 143.667C539.667 143.579 539.702 143.494 539.764 143.431C539.827 143.369 539.912 143.334 540 143.334Z" fill="white"/>
<path d="M97.2188 293.018H101.156V291.939H96.375V290.533H101.156V288.986H102.844V290.533H107.672V291.939H102.844V293.018H106.852V294.424H97.2188V293.018ZM97.5703 300.576V295.338H106.453V300.576H104.859V299.885H99.1641V300.576H97.5703ZM104.859 296.791H99.1641V298.432H104.859V296.791ZM115.289 300.529V294.395C114.719 296.207 113.949 297.736 112.98 298.982C112.621 298.404 112.277 297.896 111.949 297.459C113.207 296.092 114.162 294.498 114.814 292.678H113.227V291.178H115.289V289.092H116.836V291.178H119.508V292.678H117.316C117.98 294.611 118.844 296.092 119.906 297.119C119.617 297.564 119.277 298.111 118.887 298.76C118.055 297.799 117.371 296.268 116.836 294.166V300.529H115.289ZM108.152 296.006C108.738 295.154 109.291 294.041 109.811 292.666H108.258V291.166H109.945V289.092H111.492V291.166H112.734V292.666H111.492V293.445C112.184 293.957 112.805 294.455 113.355 294.939L112.406 296.135C112.141 295.838 111.836 295.52 111.492 295.18V300.529H109.945V295.689C109.59 296.514 109.172 297.311 108.691 298.08C108.566 297.564 108.387 296.873 108.152 296.006ZM128.637 290.404C129.84 291.576 130.953 292.729 131.977 293.861L130.676 294.963L129.762 293.885C126.402 293.939 123.484 294.08 121.008 294.307L120.387 292.924C121.926 291.971 123.449 290.619 124.957 288.869L126.492 289.701C125.383 290.748 124.211 291.771 122.977 292.771L128.613 292.572L127.418 291.26L128.637 290.404ZM121.488 300.553V295.057H130.512V300.553H128.918V299.861H123.082V300.553H121.488ZM128.918 296.51H123.082V298.408H128.918V296.51ZM143.578 291.682C142.695 292.564 141.686 293.459 140.549 294.365C141.439 295.701 142.531 296.799 143.824 297.658C143.52 298.088 143.191 298.643 142.84 299.322C141.234 298.162 139.926 296.479 138.914 294.271V298.479C138.914 299.021 138.795 299.449 138.557 299.762C138.322 300.074 137.99 300.266 137.561 300.336C137.135 300.41 136.375 300.447 135.281 300.447C135.164 299.791 135.023 299.182 134.859 298.619C135.422 298.682 135.98 298.713 136.535 298.713C137.035 298.713 137.285 298.408 137.285 297.799V289.068H138.914V291.031C139.156 291.723 139.434 292.375 139.746 292.988C140.703 292.137 141.535 291.314 142.242 290.521L143.578 291.682ZM136.664 291.541V292.959C136.109 295.678 134.867 297.865 132.938 299.521C132.648 298.85 132.375 298.299 132.117 297.869C133.539 296.658 134.539 295.064 135.117 293.088H132.516V291.541H136.664ZM149.391 289.244L151.312 289.033C151.422 289.307 151.553 289.654 151.705 290.076H155.684V291.436H146.684V294.26C146.684 297.119 146.215 299.24 145.277 300.623C144.887 300.107 144.492 299.639 144.094 299.217C144.773 298.1 145.105 296.443 145.09 294.248V290.076H149.777L149.391 289.244ZM146.59 297.424H150.691V296.604H147.305V295.268C147.594 294.799 147.879 294.311 148.16 293.803H146.965V292.443H148.881C149.045 292.123 149.207 291.795 149.367 291.459L150.996 291.705L150.609 292.443H155.391V293.803H149.877L149.051 295.268H150.691V294.166H152.262V295.268H155.203V296.604H152.262V297.424H155.754V298.783H152.262V300.494H150.691V298.783H146.59V297.424Z" fill="white"/>
<circle cx="126" cy="272" r="13" fill="white" stroke="#009CFF" stroke-width="2"/>
<circle cx="126" cy="272" r="10" fill="#009CFF"/>
<path d="M130.155 269.766H131.623V270.21H130.155V269.766ZM127.165 271.755H128.438V272.251H127.165V271.755ZM126.613 269.766H127.773V270.21H126.613V269.766ZM131.26 273.882H131.545V274.378H131.26V273.882ZM130.401 271.755H131.545V272.251H130.401V271.755ZM129.599 273.882H130.928V274.378H129.599V273.882ZM128.796 271.755H130.043V272.251H128.796V271.755ZM128.218 269.766H129.491V270.21H128.218V269.766ZM127.994 273.882H129.267V274.378H127.994V273.882ZM126.721 275.82H128.05V276.316H126.721V275.82ZM128.412 275.82H129.879V276.316H128.412V275.82ZM130.268 275.82H131.515V276.316H130.268V275.82ZM126.332 273.882H127.549V274.378H126.332V273.882ZM124.951 269.766H126.168V270.21H124.951V269.766ZM120.744 267.746V276.26H126.056V276.221L122.966 267.746H120.744ZM125.396 271.755H126.807V272.251H125.396V271.755Z" fill="white"/>
<path d="M315.782 145.229L317.365 140.78L315.488 140.112L316.089 138.422L317.966 139.09L319.554 134.63L320.989 135.141L319.402 139.601L321.245 140.257L322.42 136.956L328.161 138.999L327.595 140.589L327.077 140.404L325.222 145.615L325.752 145.804L325.186 147.394L319.434 145.347L320.644 141.946L318.8 141.29L317.217 145.74L315.782 145.229ZM323.268 139.049L321.413 144.26L323.809 145.113L325.663 139.901L323.268 139.049ZM318.721 131.062L319.501 129.536C319.793 129.785 320.076 130.039 320.349 130.298L322.883 123.177L324.307 123.684C324.869 124.273 325.45 124.924 326.051 125.635L324.935 126.743C324.428 126.14 324.02 125.68 323.71 125.362L321.52 131.517C322.287 132.391 322.946 133.312 323.497 134.279C322.98 134.427 322.462 134.612 321.944 134.834C321.04 133.318 319.966 132.061 318.721 131.062ZM322.657 129.789L323.243 128.144L328.939 130.171C329.499 130.37 329.894 130.629 330.125 130.947C330.361 131.263 330.449 131.608 330.391 131.981C330.338 132.352 330.109 133.117 329.706 134.275C329.124 134.184 328.543 134.127 327.963 134.103C328.23 133.563 328.437 133.085 328.585 132.669C328.748 132.213 328.575 131.895 328.067 131.714L322.657 129.789ZM323.44 132.343L324.549 131.183C325.925 132.676 327.103 134.12 328.083 135.513C327.685 135.77 327.25 136.071 326.779 136.418C325.831 135.027 324.718 133.669 323.44 132.343ZM325.43 126.994C327.247 126.455 328.97 125.994 330.599 125.612L330.938 127.35C329.095 127.706 327.358 128.078 325.727 128.468L325.43 126.994ZM332.988 125.542L322.543 121.825L326.095 111.844L336.528 115.557L335.986 117.081L335.555 116.927L333.088 123.861L333.53 124.018L332.988 125.542ZM327.308 114.552L328.213 114.874C328.598 115.447 328.88 116.123 329.058 116.904C329.432 116.365 329.8 115.733 330.162 115.008L326.889 113.843L325.694 117.199C325.848 117.408 325.995 117.624 326.135 117.848L327.308 114.552ZM325.152 118.723L324.421 120.777L326.337 121.458C326.058 120.318 325.663 119.407 325.152 118.723ZM328.072 118.102C328.017 117.501 327.893 116.999 327.701 116.595L326.856 118.969C327.267 118.779 327.673 118.49 328.072 118.102ZM327.452 121.034C327.174 121.151 326.852 121.31 326.486 121.511L327.805 121.981C327.963 121.083 328.059 120.276 328.095 119.559C327.791 119.762 327.481 119.931 327.167 120.068C327.272 120.379 327.367 120.701 327.452 121.034ZM330.018 121.897C330.967 120.046 331.89 118.314 332.788 116.701L333.87 117.435L334.22 116.452L330.295 115.055C330.506 115.313 330.769 115.626 331.086 115.996C330.513 117.023 329.909 117.874 329.275 118.548C329.296 119.016 329.29 119.509 329.259 120.029C329.848 118.862 330.448 117.73 331.058 116.633L332.028 117.227C331.383 118.365 330.688 119.652 329.945 121.088L329.211 120.634C329.172 121.022 329.121 121.425 329.055 121.841C328.698 121.867 328.312 121.925 327.899 122.014L331.752 123.385L333.85 117.49C333.012 118.879 332.084 120.589 331.067 122.619L330.018 121.897ZM326.476 109.654C327.428 109.006 328.166 108.53 328.688 108.227L329.463 109.684C328.709 110.079 327.961 110.493 327.218 110.925L326.476 109.654ZM327.688 107.821L330.431 100.115L331.855 100.622L331.588 101.373L338.146 103.706C338.874 103.966 339.353 104.275 339.582 104.634C339.812 104.99 339.89 105.387 339.817 105.825C339.744 106.263 339.48 107.121 339.026 108.398C338.452 108.31 337.887 108.233 337.329 108.167C337.528 107.716 337.693 107.304 337.825 106.932C338.063 106.262 338.119 105.826 337.992 105.623C337.867 105.417 337.611 105.245 337.224 105.107L331.042 102.907L329.112 108.328L327.688 107.821ZM331.645 104.254L336.767 106.077L335.828 108.715L336.48 108.947L335.989 110.327L330.214 108.272L331.645 104.254ZM332.03 107.364L334.503 108.244L334.951 106.985L332.478 106.105L332.03 107.364ZM329.273 111.022C330.233 110.377 331.054 109.852 331.736 109.448L332.519 110.884C331.96 111.174 331.135 111.652 330.044 112.317L329.273 111.022ZM332.541 111.626C332.898 111.205 333.232 110.781 333.542 110.352L337.387 113.039C337.025 113.474 336.69 113.915 336.382 114.361C335.026 113.323 333.746 112.411 332.541 111.626Z" fill="#009CFF"/>
<path d="M43.5124 289.153L44.7562 288.615C44.7578 288.793 44.7541 288.97 44.745 289.146L47.7693 287.447L48.349 288.479C48.2728 289.22 48.0751 289.945 47.756 290.653C48.5102 290.48 49.2949 290.178 50.1101 289.747C50.1814 290.209 50.2717 290.705 50.3812 291.235C49.1613 291.759 48.0069 292.049 46.9183 292.105C46.3778 292.866 45.6912 293.605 44.8583 294.324L49.9873 291.443L51.9272 294.896L50.6399 295.619L50.4562 295.292L47.7487 296.813L47.9439 297.161L46.6565 297.884L44.7223 294.441C44.6218 294.533 44.5209 294.617 44.4196 294.691C44.0678 294.432 43.7 294.168 43.3163 293.9L45.0381 296.965L43.9143 297.596L43.5469 296.942L42.9033 297.304L43.4198 298.224L42.296 298.855L37.8076 290.865L40.6991 289.241L43.2818 293.839C44.1061 293.232 44.7937 292.622 45.3448 292.008C45.0099 291.954 44.6844 291.877 44.3682 291.777C44.2816 292.085 44.1772 292.386 44.0549 292.679C43.6286 292.542 43.1928 292.428 42.7477 292.338C43.2131 291.252 43.4679 290.19 43.5124 289.153ZM40.3098 291.18L39.6662 291.542L42.1686 295.996L42.8123 295.635L40.3098 291.18ZM49.2853 293.208L46.5778 294.729L47.1633 295.771L49.8708 294.25L49.2853 293.208ZM46.2328 290.837C46.5505 290.318 46.7685 289.797 46.8867 289.273L44.6287 290.542L44.621 290.6C45.1461 290.753 45.6833 290.832 46.2328 290.837ZM48.1506 286.977L46.8837 287.689L46.591 287.168L42.8312 289.28L43.1928 289.924L41.9463 290.624L40.9878 288.918L43.1946 287.678C43.0173 287.553 42.8201 287.418 42.6031 287.271L43.7962 286.117C44.1753 286.361 44.5026 286.585 44.7783 286.788L47.261 285.393L48.1506 286.977ZM49.4373 282.975L51.1291 282.589C51.271 283.392 51.378 284.196 51.4502 285.003L55.8065 292.757L54.4169 293.538L51.5472 288.429C51.5245 289.083 51.4809 289.739 51.4165 290.398C50.9733 289.912 50.4483 289.36 49.8413 288.742C49.9228 286.878 49.7881 284.955 49.4373 282.975ZM52.3614 285.62L55.0178 284.127L53.2156 280.919L54.7481 280.058L56.5504 283.267L59.2681 281.74L60.0372 283.109L57.3195 284.636L60.4188 290.153L58.8863 291.014L55.7869 285.497L53.1305 286.989L52.3614 285.62ZM58.9683 277.809C60.1118 277.946 60.9801 278.072 61.5733 278.187L61.1996 279.795C60.3715 279.597 59.5356 279.417 58.6918 279.254L58.9683 277.809ZM61.0861 277.224L68.2176 273.218L68.958 274.536L68.2632 274.926L71.6725 280.995C72.0513 281.669 72.2089 282.217 72.1452 282.638C72.085 283.057 71.8833 283.408 71.5401 283.69C71.1969 283.973 70.4345 284.446 69.2527 285.11C68.878 284.666 68.5023 284.236 68.1254 283.821C68.5718 283.61 68.9669 283.408 69.3109 283.215C69.9307 282.867 70.2594 282.575 70.297 282.339C70.338 282.101 70.2581 281.803 70.0572 281.445L66.843 275.724L61.8265 278.542L61.0861 277.224ZM66.4126 277.135L69.0758 281.876L66.6339 283.247L66.9726 283.85L65.6954 284.568L62.6937 279.224L66.4126 277.135ZM64.6595 279.733L65.9452 282.021L67.1099 281.367L65.8243 279.078L64.6595 279.733ZM60.1771 280.678C61.3243 280.822 62.288 280.966 63.068 281.111L62.7147 282.707C62.1024 282.558 61.1666 282.376 59.9075 282.16L60.1771 280.678ZM62.2439 283.281C62.7891 283.198 63.3194 283.098 63.8349 282.978L64.9673 287.53C64.4085 287.62 63.8665 287.732 63.3412 287.866C63.0017 286.193 62.6359 284.664 62.2439 283.281Z" fill="#009CFF"/>
<path d="M59.3033 240.91L60.8796 236.576C60.3146 236.267 59.6606 235.962 58.9174 235.663L57.4973 239.567L55.9995 239.022L59.4606 229.507L60.9584 230.052L59.5022 234.055C60.134 234.318 60.7947 234.604 61.4845 234.913L63.189 230.227L64.7088 230.78L63.1765 234.993C65.3255 234.856 67.078 233.866 68.4341 232.023C68.6624 232.447 69.0287 233.062 69.5333 233.869C68.0133 235.511 66.0725 236.401 63.711 236.54C65.151 237.804 66.0572 239.7 66.4297 242.23C65.9585 242.383 65.3377 242.627 64.5674 242.962C64.3574 240.225 63.5934 238.395 62.2752 237.47L60.8231 241.463L59.3033 240.91ZM73.1977 223.555L72.3387 223.243L69.4464 231.194L61.5833 228.334L62.1681 226.726L68.5115 229.033L69.3608 226.699L60.9359 223.634L61.5408 221.971L69.9656 225.036L70.8189 222.69L64.4755 220.383L65.0604 218.775L73.7825 221.947L73.1977 223.555ZM67.1445 211.777L67.487 210.835C66.9911 210.896 66.5062 210.983 66.0323 211.098L65.8442 209.832C66.4569 209.656 67.039 209.519 67.5903 209.42L67.7014 210.246L68.0759 209.216C67.6134 208.636 67.1526 208.109 66.6934 207.635L67.6707 206.593C67.9927 207.022 68.2953 207.436 68.5786 207.834L68.9312 206.865L70.0985 207.29L69.3815 209.261C69.4979 209.523 69.6043 209.791 69.7008 210.063C70.0218 209.934 70.3634 209.847 70.7255 209.8C70.5887 209.239 70.4104 208.683 70.1905 208.134L71.399 207.725C71.5778 208.376 71.7293 209.057 71.8534 209.767C72.0446 209.779 72.2398 209.802 72.4391 209.837L72.2679 209.313C72.9014 209.012 73.6116 208.75 74.3985 208.529L74.7959 209.734C74.3343 209.849 73.9048 209.967 73.5073 210.088C74.3506 210.341 74.8841 210.651 75.1077 211.019C75.3276 211.386 75.346 211.821 75.1631 212.324C75.0403 212.662 74.901 213.01 74.7455 213.369C74.3477 213.274 73.9382 213.2 73.517 213.147C73.6926 212.778 73.8191 212.488 73.8966 212.275C73.9927 212.011 73.9727 211.814 73.8366 211.686C73.6967 211.556 73.3939 211.423 72.928 211.287C73.2723 212.123 73.5141 212.984 73.6531 213.87C73.3411 213.939 72.9987 214.035 72.6259 214.157L73.7106 214.552C74.4586 214.404 75.0295 213.788 75.4234 212.706C75.7999 211.67 76.1832 210.571 76.5731 209.408C77.0449 209.779 77.4387 210.068 77.7544 210.274C77.035 212.286 76.5702 213.524 76.3599 213.988C76.1532 214.453 75.9056 214.814 75.6169 215.07C75.3318 215.328 74.9916 215.504 74.5961 215.597C74.9077 216.226 75.2201 216.784 75.5331 217.272L73.853 217.571C73.5691 216.969 73.2826 216.345 72.9937 215.7L70.0588 214.632L69.8224 215.282L68.4128 214.769L69.1018 212.875L72.5708 214.137C72.5182 213.07 72.284 212.046 71.8683 211.063C71.6921 211.045 71.5194 211.034 71.3502 211.031C71.6401 211.776 71.8501 212.507 71.9802 213.224C71.6872 213.275 71.3301 213.366 70.9089 213.495C70.8966 212.672 70.7595 211.872 70.4976 211.095C70.3474 211.119 70.1971 211.149 70.0466 211.186C70.173 211.673 70.2749 212.175 70.3523 212.694C70.0619 212.738 69.7015 212.815 69.271 212.924C69.2544 212.17 69.1183 211.424 68.8627 210.687L68.3119 212.201L67.1445 211.777ZM65.2532 212.074C65.918 212.075 66.8361 212.122 68.0075 212.215L67.9523 213.567C66.9765 213.461 66.0404 213.395 65.144 213.368L65.2532 212.074ZM72.7636 218.235C72.4796 218.181 72.1362 218.131 71.7334 218.085L74.828 219.21L74.3633 220.488L63.9122 216.686L65.1019 213.415L66.4014 213.888L69.0495 215.487C70.0243 215.31 70.866 215.35 71.5745 215.608C72.2242 215.844 72.6509 216.151 72.8544 216.528C73.0556 216.901 73.0254 217.47 72.7636 218.235ZM68.737 216.758L65.9718 215.103L65.6874 215.885L71.3755 217.954C71.5304 217.529 71.5775 217.251 71.5168 217.12C71.4524 216.989 71.3321 216.891 71.1559 216.827C70.5905 216.621 69.7842 216.598 68.737 216.758ZM67.9272 204.654C68.5446 204.214 69.2425 203.769 70.0208 203.321L70.7756 204.743C70.0013 205.134 69.265 205.536 68.5668 205.947L67.9272 204.654ZM79.7984 205.032L79.2856 206.441L69.0327 202.712L71.7046 195.366L80.5038 198.567C80.915 198.717 81.206 198.922 81.3768 199.184C81.5527 199.443 81.6135 199.727 81.5595 200.036C81.509 200.346 81.3096 200.98 80.9611 201.938C80.4371 201.847 79.9075 201.784 79.3722 201.747C79.5471 201.312 79.6973 200.921 79.8228 200.576C79.9644 200.187 79.8259 199.917 79.4074 199.764L72.5795 197.281L70.933 201.807L79.7984 205.032ZM74.4035 198.505L73.1216 202.029L71.8442 201.565L73.126 198.041L74.4035 198.505ZM70.8125 205.841C71.5781 205.313 72.276 204.868 72.9061 204.507L73.6629 205.992C72.916 206.377 72.1921 206.779 71.4912 207.198L70.8125 205.841ZM75.0322 198.834L78.9748 200.268L78.1857 202.437L78.7694 202.65L78.3407 203.828L73.8145 202.182L75.0322 198.834ZM75.5206 201.468L76.9082 201.973L77.2687 200.982L75.8811 200.477L75.5206 201.468ZM73.9422 206.493C74.4689 205.936 74.8477 205.5 75.0787 205.185C76.1813 205.994 77.4223 206.936 78.8019 208.011C78.3907 208.502 78.0325 208.949 77.7275 209.354C76.5748 208.386 75.3131 207.432 73.9422 206.493Z" fill="#FF831E"/>
<path d="M80.4095 129.171L81.2835 131.82L81.7732 131.658L81.046 129.455L82.0031 129.139L82.7302 131.342L83.2199 131.181L82.4193 128.755L83.3763 128.439L84.1769 130.865L85.0672 130.571L85.5446 132.018L84.6543 132.312L85.5027 134.882L84.5456 135.198L83.6973 132.627L83.2076 132.789L83.9752 135.115L83.0181 135.431L82.2506 133.105L81.7609 133.266L82.668 136.015L81.711 136.331L79.4524 129.487L80.4095 129.171ZM78.8505 125.083L79.3059 126.463L83.2119 125.174L83.6453 126.487L79.7392 127.776L80.1468 129.011L78.9672 129.4L78.5596 128.165L77.38 128.554L77.9646 128.867C77.6687 129.492 77.3717 130.075 77.0736 130.618L75.9118 130.014C76.1116 129.709 76.3543 129.304 76.6399 128.799L72.7505 130.082L72.3172 128.769L75.7336 127.641C74.8198 127.565 74.0086 127.425 73.3002 127.223C73.7259 126.942 74.2272 126.604 74.8041 126.208C75.6802 126.507 76.7803 126.7 78.1042 126.785L77.6709 125.472L78.8505 125.083ZM83.042 127.463L83.0613 128.456C82.2558 128.484 81.4306 128.489 80.5858 128.471L80.6145 127.549L83.042 127.463ZM82.168 124.815C81.4105 125.311 80.731 125.745 80.1296 126.117L79.5613 125.329C80.2369 124.934 80.9213 124.502 81.6145 124.035L82.168 124.815ZM73.8672 133.391L73.4191 132.033L79.1948 130.127L81.1228 135.97L76.9274 137.354C76.4192 137.522 76.0022 137.542 75.6765 137.415C75.3508 137.288 75.1212 137.029 74.9877 136.637C74.8518 136.25 74.6473 135.643 74.3743 134.816C74.6935 134.636 75.0438 134.414 75.4251 134.148C75.6364 134.938 75.7782 135.442 75.8504 135.661C75.9581 135.988 76.1975 136.09 76.5684 135.967L76.7131 135.919L75.6811 132.792L73.8672 133.391ZM79.6287 134.957L78.5968 131.83L78.0626 132.006L79.0946 135.134L79.6287 134.957ZM76.6048 132.488L77.6367 135.615L78.1709 135.438L77.1389 132.311L76.6048 132.488ZM86.8694 136.369C86.5152 137.465 86.2249 138.293 85.9984 138.853L84.4922 138.177C84.8453 137.403 85.1825 136.617 85.5036 135.82L86.8694 136.369ZM87.037 138.559L89.6003 146.327L88.1647 146.801L87.915 146.044L81.3047 148.225C80.5702 148.468 80.0025 148.517 79.6015 148.374C79.2016 148.235 78.8961 147.969 78.6848 147.578C78.4735 147.187 78.1555 146.348 77.7307 145.061C78.238 144.778 78.7317 144.492 79.2119 144.202C79.3327 144.68 79.455 145.107 79.5786 145.482C79.8014 146.157 80.0251 146.535 80.2497 146.618C80.4755 146.704 80.7831 146.682 81.1726 146.554L87.4045 144.497L85.6014 139.033L87.037 138.559ZM86.1022 143.804L80.9386 145.508L80.0609 142.848L79.4043 143.065L78.9452 141.674L84.7654 139.753L86.1022 143.804ZM83.8891 141.585L81.3963 142.408L81.8149 143.676L84.3077 142.854L83.8891 141.585ZM83.8213 137.004C83.4597 138.103 83.1334 139.021 82.8421 139.759L81.3432 139.106C81.6068 138.533 81.9652 137.65 82.4184 136.455L83.8213 137.004ZM80.8706 138.533C80.8467 139.084 80.8438 139.624 80.862 140.153L76.1771 140.391C76.1961 139.825 76.1904 139.272 76.1599 138.731C77.8671 138.718 79.4373 138.653 80.8706 138.533Z" fill="#009CFF"/>
</svg>
